<?xml version="1.0" encoding="UTF-8" standalone="no"?>
<svg width="1075.27mm" height="64.2056mm"
 xmlns="http://www.w3.org/2000/svg" xmlns:xlink="http://www.w3.org/1999/xlink"  version="1.2" baseProfile="tiny">
<title>Qt Svg Document</title>
<desc>Generated with Qt</desc>
<defs>
</defs>
<g fill="none" stroke="black" stroke-width="1" fill-rule="evenodd" stroke-linecap="square" stroke-linejoin="bevel" >

<g fill="none" stroke="#000000" stroke-opacity="1" stroke-width="1" stroke-linecap="square" stroke-linejoin="bevel" transform="matrix(1,0,0,1,0,0)"
font-family="Cantarell" font-size="11" font-weight="400" font-style="normal" 
>
</g>

<g fill="none" stroke="#000000" stroke-opacity="1" stroke-width="1" stroke-linecap="square" stroke-linejoin="bevel" transform="matrix(1,0,0,1,0,0)"
font-family="Cantarell" font-size="11" font-weight="400" font-style="normal" 
>
</g>

<g fill="none" stroke="#000000" stroke-opacity="1" stroke-width="1" stroke-linecap="square" stroke-linejoin="bevel" transform="matrix(2,0,0,2,-0.0032,181)"
font-family="Cantarell" font-size="11" font-weight="400" font-style="normal" 
>
</g>

<g fill="#ffffff" fill-opacity="1" stroke="none" transform="matrix(2,0,0,2,-0.0032,181)"
font-family="Cantarell" font-size="11" font-weight="400" font-style="normal" 
>
<path vector-effect="non-scaling-stroke" fill-rule="evenodd" d="M0.0016,-90.5 L1524,-90.5 L1524,0.50004 L0.0016,0.50004 L0.0016,-90.5"/>
</g>

<g fill="none" stroke="#000000" stroke-opacity="1" stroke-width="1" stroke-linecap="square" stroke-linejoin="bevel" transform="matrix(2,0,0,2,-0.0032,181)"
font-family="Cantarell" font-size="11" font-weight="400" font-style="normal" 
>
</g>

<g fill="none" stroke="#000000" stroke-opacity="1" stroke-width="1" stroke-linecap="square" stroke-linejoin="bevel" transform="matrix(2,0,0,2,-0.0032,181)"
font-family="Cantarell" font-size="11" font-weight="400" font-style="normal" 
>
</g>

<g fill="none" stroke="#000000" stroke-opacity="1" stroke-width="1" stroke-linecap="square" stroke-linejoin="bevel" transform="matrix(2,0,0,2,-0.0032,181)"
font-family="Cantarell" font-size="11" font-weight="400" font-style="normal" 
>
</g>

<g fill="none" stroke="#000000" stroke-opacity="1" stroke-width="1" stroke-linecap="square" stroke-linejoin="bevel" transform="matrix(2,0,0,2,-0.0032,181)"
font-family="Cantarell" font-size="11" font-weight="400" font-style="normal" 
>
</g>

<g fill="none" stroke="#000000" stroke-opacity="1" stroke-width="1" stroke-linecap="square" stroke-linejoin="round" transform="matrix(2,0,0,2,-0.0032,181)"
font-family="Cantarell" font-size="11" font-weight="400" font-style="normal" 
>
<path vector-effect="none" fill-rule="evenodd" d="M1523.5,-18 C1523.5,-8.05885 1444.03,4e-05 1346,4e-05 C1247.97,4e-05 1168.5,-8.05885 1168.5,-18 C1168.5,-27.9411 1247.97,-36 1346,-36 C1444.03,-36 1523.5,-27.9411 1523.5,-18 "/>
</g>

<g fill="none" stroke="#000000" stroke-opacity="1" stroke-width="1" stroke-linecap="square" stroke-linejoin="bevel" transform="matrix(2,0,0,2,-0.0032,181)"
font-family="Cantarell" font-size="11" font-weight="400" font-style="normal" 
>
</g>

<g fill="none" stroke="#000000" stroke-opacity="1" stroke-width="1" stroke-linecap="square" stroke-linejoin="bevel" transform="matrix(2,0,0,2,2449.56,124)"
font-family="Cantarell" font-size="11" font-weight="400" font-style="normal" 
>
</g>

<g fill="none" stroke="#000000" stroke-opacity="1" stroke-width="1" stroke-linecap="square" stroke-linejoin="bevel" transform="matrix(2,0,0,2,2449.56,124)"
font-family="Cantarell" font-size="11" font-weight="400" font-style="normal" 
>
</g>

<g fill="#000000" fill-opacity="1" stroke="#000000" stroke-opacity="1" stroke-width="1" stroke-linecap="square" stroke-linejoin="round" transform="matrix(2,0,0,2,2449.56,124)"
font-family="Cantarell" font-size="11" font-weight="400" font-style="normal" 
>
<path vector-effect="non-scaling-stroke" fill-rule="nonzero" d="M3.84375,5.8125 L0.296875,16.6406 L1.51562,16.6406 L5.0625,5.8125 L3.84375,5.8125 M9.21875,8.79688 C8.53125,8.79688 7.89062,9.03125 7.25,9.51562 L7.01562,8.9375 L6.14062,8.9375 L6.14062,16 L7.35938,16 L7.35938,10.375 C7.875,10.0312 8.40625,9.84375 8.96875,9.84375 C9.32812,9.84375 9.67188,9.9375 10.0469,10.0938 L10.1875,10.0938 L10.1875,8.9375 C9.89062,8.84375 9.5625,8.79688 9.21875,8.79688 M14.6875,9.75 C16.125,9.75 16.875,10.9688 16.875,12.4844 C16.875,13.9844 16.1406,15.1875 14.6875,15.1875 C13.25,15.1875 12.5,13.9688 12.5,12.4844 C12.5,10.9844 13.25,9.75 14.6875,9.75 M14.6562,16.1406 C16.8281,16.1406 18.0938,14.6719 18.0938,12.4688 C18.0938,10.25 16.8906,8.8125 14.7031,8.8125 C12.5312,8.8125 11.2812,10.2656 11.2812,12.4844 C11.2812,14.6719 12.4844,16.1406 14.6562,16.1406 M22.0312,15.1562 C21.1719,15.1562 20.3281,14.9688 19.5312,14.6719 L19.5312,15.7344 C20.1875,16.0156 21.0469,16.1406 22.1406,16.1406 C23.2188,16.1406 24,15.8281 24.4844,15.2031 C24.7344,14.9062 24.8438,14.5 24.8438,14.125 C24.8438,13.6719 24.75,13.3281 24.4375,12.9844 C24.1719,12.7031 23.9375,12.4688 22.9688,12.1094 L21.8906,11.7188 C21.5625,11.5938 21.3438,11.4844 21.2344,11.4062 C20.9844,11.25 20.8125,11.125 20.8125,10.7031 C20.8125,10.5469 20.8906,10.3906 21.0469,10.25 C21.4219,9.89062 21.9219,9.79688 22.5781,9.79688 C23.4844,9.79688 24.125,10.2031 24.4531,10.3438 L24.4531,9.35938 C23.8125,9.0625 23.3594,8.85938 22.4688,8.84375 L22.4062,8.84375 C21.8906,8.84375 21.3906,8.9375 20.9375,9.10938 C20.2188,9.39062 19.5938,9.89062 19.5938,10.8594 C19.5938,11.9844 20.5469,12.3281 21.125,12.5938 L22.2188,13.0156 C22.5781,13.1562 22.9375,13.3281 23.1719,13.4844 C23.4531,13.6875 23.5938,13.8906 23.5938,14.1719 C23.5938,14.875 22.8125,15.1562 22.0312,15.1562 M29.0938,16.125 C29.5938,16.125 30.1094,16.0469 30.6562,15.875 L30.6562,14.9688 C30.2812,15.0781 29.875,15.1406 29.4531,15.1406 C28.5469,15.1406 28.3125,14.6562 28.3125,13.7031 L28.3125,9.90625 L30.6562,9.90625 L30.6562,8.90625 L28.3125,8.90625 L28.3125,7.09375 L27.125,7.15625 L27.125,8.90625 L25.9219,8.90625 L25.9219,9.90625 L27.125,9.90625 L27.125,13.7969 C27.125,15.2969 27.625,16.125 29.0938,16.125 M35.3125,9.75 C36.75,9.75 37.5,10.9688 37.5,12.4844 C37.5,13.9844 36.7656,15.1875 35.3125,15.1875 C33.875,15.1875 33.125,13.9688 33.125,12.4844 C33.125,10.9844 33.875,9.75 35.3125,9.75 M35.2812,16.1406 C37.4531,16.1406 38.7188,14.6719 38.7188,12.4688 C38.7188,10.25 37.5156,8.8125 35.3281,8.8125 C33.1562,8.8125 31.9062,10.2656 31.9062,12.4844 C31.9062,14.6719 33.1094,16.1406 35.2812,16.1406 M43.2656,9.79688 C44.8125,9.79688 45.5781,10.9062 45.5781,12.4844 C45.5781,14.0625 44.7656,15.2344 43.2656,15.2344 C42.7188,15.2344 42.1875,15.125 41.6719,14.9062 L41.6719,10.2344 C42.1719,9.95312 42.5469,9.79688 43.2656,9.79688 M41.6719,19.8281 L41.6719,15.8438 C42.2344,16.0781 42.7969,16.1875 43.375,16.1875 C44.3438,16.1875 45.1562,15.8594 45.7969,15.2188 C46.4688,14.5625 46.8281,13.6094 46.8281,12.3906 C46.8281,10.9219 46.3125,9.89062 45.3281,9.26562 C44.8281,8.95312 44.2344,8.79688 43.5312,8.79688 C42.8281,8.79688 42.1719,9.01562 41.5469,9.42188 L41.3125,8.92188 L40.4531,8.92188 L40.4531,19.8281 L41.6719,19.8281 M48.5,8.92188 L48.5,16 L49.7031,16 L49.7031,8.92188 L48.5,8.92188 M48.5,6.17188 L48.5,7.39062 L49.7031,7.39062 L49.7031,6.17188 L48.5,6.17188 M54.8125,16.1406 L54.8906,16.1406 C55.5,16.1406 56.125,16.0156 56.8125,15.75 L56.5312,14.9375 C56.0781,15.1094 55.625,15.1719 55.2344,15.1719 C55.125,15.1719 55.0156,15.1719 54.9062,15.1562 C53.3438,14.9688 52.6094,14.1094 52.6094,12.375 C52.6094,10.7188 53.4375,9.79688 55.125,9.79688 C55.5469,9.79688 56.0625,9.875 56.5938,10.0625 L56.8906,9.21875 C56.25,8.9375 55.625,8.79688 55.0625,8.79688 C53.8281,8.79688 52.9375,9.14062 52.3281,9.85938 C51.75,10.5469 51.4688,11.4531 51.4688,12.5781 C51.4688,14.8281 52.625,16.1406 54.8125,16.1406 M58.5781,14.9219 L58.5781,16 L64.7344,16 L64.7344,14.9219 L58.5781,14.9219 M67.3281,7.46875 C68.2969,7.10938 68.8438,6.89062 69.875,6.89062 C71.4062,6.89062 72.0781,7.82812 72.0781,8.67188 C72.0781,9.625 70.7031,10.875 69.2656,12.4219 C68.4844,13.25 67.75,14.0781 67.0938,15.0938 L67.0625,16 L73.5781,16 L73.5781,14.9219 L68.6406,14.9062 C69.0781,14.2812 69.5938,13.7031 70.1406,13.1406 C71.1094,12.1406 73.375,10.125 73.375,8.53125 C73.375,6.8125 71.6719,5.76562 69.9688,5.76562 C68.3125,5.76562 68,6.10938 66.9375,6.5 L67.3281,7.46875 M77.4844,15.125 L77.5625,16.1719 C78.2656,16.1719 79.25,16.0938 79.875,15.875 C82.0625,15.1719 83.1719,13.2031 83.1719,10.0312 C83.1719,8.29688 82.8906,7.15625 81.8906,6.32812 C81.375,5.90625 80.6094,5.6875 79.75,5.6875 C77.5781,5.6875 76.3125,7.14062 76.3125,9.21875 C76.3125,10.0781 76.5625,10.75 77.0625,11.3281 C77.6562,12.0156 78.6562,12.3594 79.6562,12.375 C80.5,12.375 81.3281,11.9688 81.8438,11.3906 C81.7969,11.7031 81.7656,12.125 81.7188,12.3125 C81.3125,14.0938 80.0312,15.125 77.4844,15.125 M79.7031,6.76562 C81.2031,6.76562 81.9844,7.84375 81.9844,9.1875 C81.9844,10.4375 81.0312,11.2344 79.7188,11.2344 C78.4062,11.2344 77.4844,10.375 77.4844,9.10938 C77.4844,7.8125 78.2031,6.76562 79.7031,6.76562 M88.8906,6.70312 C89.2969,6.70312 89.6719,6.75 89.9375,6.875 C90.4219,7.07812 90.875,7.51562 90.875,8.15625 C90.875,8.45312 90.7969,8.71875 90.6094,8.95312 C90.4375,9.1875 90.0312,9.5 89.4062,9.89062 L89.2344,9.82812 C89.0156,9.76562 88.8438,9.71875 88.7031,9.65625 C87.7344,9.3125 87.25,8.79688 87.25,8.125 C87.25,7.35938 88.0938,6.70312 88.8906,6.70312 M89.0938,15.0781 C87.8594,15.0781 86.7031,14.2656 86.7031,13.0938 C86.7031,11.9062 87.7969,11.1094 88.8438,10.7969 C89.125,10.875 89.375,10.9531 89.5938,11.0312 C90.7969,11.5 91.375,12.2031 91.375,13.1562 C91.375,14.3594 90.3594,15.0781 89.0938,15.0781 M89.0625,5.6875 C88.1094,5.6875 87.375,5.9375 86.8438,6.42188 C86.4531,6.75 86.0469,7.35938 86.0469,8 C86.0469,8.25 86.0625,8.45312 86.1094,8.625 C86.2812,9.375 86.75,9.95312 87.5156,10.3281 C86.5,10.8125 85.4688,11.8438 85.4688,13.2031 C85.4688,13.7656 85.625,14.2656 85.9531,14.7188 C86.5469,15.5781 87.6875,16.1406 89.0938,16.1406 C90.3906,16.1406 91.3594,15.7031 92.0469,14.8125 C92.4375,14.2969 92.6406,13.7031 92.6406,13.0625 C92.6406,12.4844 92.4688,11.9688 92.1406,11.5 C91.8125,11.0312 91.3125,10.625 90.6094,10.3125 C91.1094,9.96875 91.4844,9.625 91.7188,9.29688 C91.9531,8.95312 92.0469,8.57812 92.0469,8.15625 C92.0469,6.48438 90.8281,5.6875 89.0625,5.6875 M97.5156,10.6562 C98.6094,10.6562 99.3281,10.875 99.9219,11.4219 C100.359,11.8125 100.578,12.2188 100.578,12.875 C100.578,13.6719 100.141,14.1562 99.6562,14.5 C99.0781,14.9219 98.3594,15.0312 97.3438,15.0312 C96.5469,15.0312 95.875,14.9531 95.1562,14.8125 L94.9219,15.8906 C95.8125,16.0781 96.6562,16.1406 97.4219,16.1406 C98.0312,16.1406 98.625,16.1094 99.1406,15.9844 C99.7344,15.875 100.234,15.6094 100.688,15.2344 C101.438,14.6094 101.828,13.7812 101.828,12.7188 C101.828,12.25 101.734,11.8125 101.547,11.3906 C100.984,10.2344 99.8281,9.57812 98.0469,9.57812 C97.6094,9.57812 97.1094,9.60938 96.5469,9.67188 L96.5312,6.89062 L101.25,6.89062 L101.25,5.8125 L95.375,5.8125 L95.375,10.8281 C96.1562,10.75 96.7812,10.6562 97.5156,10.6562 M106.812,10.6562 C107.906,10.6562 108.625,10.875 109.219,11.4219 C109.656,11.8125 109.875,12.2188 109.875,12.875 C109.875,13.6719 109.438,14.1562 108.953,14.5 C108.375,14.9219 107.656,15.0312 106.641,15.0312 C105.844,15.0312 105.172,14.9531 104.453,14.8125 L104.219,15.8906 C105.109,16.0781 105.953,16.1406 106.719,16.1406 C107.328,16.1406 107.922,16.1094 108.438,15.9844 C109.031,15.875 109.531,15.6094 109.984,15.2344 C110.734,14.6094 111.125,13.7812 111.125,12.7188 C111.125,12.25 111.031,11.8125 110.844,11.3906 C110.281,10.2344 109.125,9.57812 107.344,9.57812 C106.906,9.57812 106.406,9.60938 105.844,9.67188 L105.828,6.89062 L110.547,6.89062 L110.547,5.8125 L104.672,5.8125 L104.672,10.8281 C105.453,10.75 106.078,10.6562 106.812,10.6562 M113.359,14.9219 L113.359,16 L119.516,16 L119.516,14.9219 L113.359,14.9219 M125.984,5.8125 L124.578,5.8125 L122.109,6.82812 L122.578,7.875 L124.812,6.98438 L124.812,14.9219 L122.422,14.9219 L122.422,16 L128.359,16 L128.359,14.9219 L125.984,14.9219 L125.984,5.8125 M136.547,5.8125 L134.844,5.8125 L130.734,12.7344 L130.734,13.5312 L135.375,13.5312 L135.375,16 L136.547,16 L136.547,13.5312 L138.328,13.5312 L138.328,12.4688 L136.547,12.4688 L136.547,5.8125 M135.375,12.4688 L132.141,12.4688 L135.375,6.96875 L135.375,12.4688 M143.906,6.78125 C144.344,6.78125 144.734,6.92188 145.109,7.20312 C146.016,7.90625 146.484,9.09375 146.484,10.7969 C146.484,12.6719 146,13.9688 145.031,14.6719 C144.672,14.9375 144.297,15.0781 143.875,15.0781 C143.438,15.0781 143.031,14.9375 142.688,14.7031 C141.688,14.0469 141.172,12.6875 141.172,10.7031 C141.172,8.65625 142.031,6.78125 143.906,6.78125 M139.969,10.7812 C139.969,13.1875 140.766,14.9688 142.297,15.7656 C142.781,16.0156 143.281,16.1406 143.812,16.1406 C144.344,16.1406 144.859,16.0312 145.328,15.7969 C146.938,14.9844 147.703,13.2188 147.703,10.7656 C147.703,8.46875 146.984,6.92188 145.531,6.125 C145,5.82812 144.469,5.6875 143.844,5.6875 C142.719,5.6875 141.766,6.15625 141.016,7.07812 C140.312,7.95312 139.969,9.17188 139.969,10.7812 M152.297,10.6562 C153.391,10.6562 154.109,10.875 154.703,11.4219 C155.141,11.8125 155.359,12.2188 155.359,12.875 C155.359,13.6719 154.922,14.1562 154.438,14.5 C153.859,14.9219 153.141,15.0312 152.125,15.0312 C151.328,15.0312 150.656,14.9531 149.938,14.8125 L149.703,15.8906 C150.594,16.0781 151.438,16.1406 152.203,16.1406 C152.812,16.1406 153.406,16.1094 153.922,15.9844 C154.516,15.875 155.016,15.6094 155.469,15.2344 C156.219,14.6094 156.609,13.7812 156.609,12.7188 C156.609,12.25 156.516,11.8125 156.328,11.3906 C155.766,10.2344 154.609,9.57812 152.828,9.57812 C152.391,9.57812 151.891,9.60938 151.328,9.67188 L151.312,6.89062 L156.031,6.89062 L156.031,5.8125 L150.156,5.8125 L150.156,10.8281 C150.938,10.75 151.562,10.6562 152.297,10.6562 M164.438,5.8125 L162.734,5.8125 L158.625,12.7344 L158.625,13.5312 L163.266,13.5312 L163.266,16 L164.438,16 L164.438,13.5312 L166.219,13.5312 L166.219,12.4688 L164.438,12.4688 L164.438,5.8125 M163.266,12.4688 L160.031,12.4688 L163.266,6.96875 L163.266,12.4688 M172.141,9.92188 L174.359,6.1875 L174.359,5.8125 L168.25,5.8125 L168.25,6.875 L172.594,6.875 L170.5,10.3906 L170.5,10.8594 L170.578,10.8594 C171.484,10.8594 172.156,10.8594 172.672,11.1562 C173.625,11.7031 173.797,12.5 173.797,13.1406 C173.797,13.7344 173.5,14.1875 172.984,14.5625 C172.453,14.9375 171.797,15.0781 171.141,15.0781 C170.5,15.0781 169.656,14.9375 168.656,14.6719 L168.328,15.6406 C169.219,16.0156 170.094,16.2031 170.953,16.2031 L170.984,16.2031 C172.125,16.2031 173.141,15.9375 173.891,15.3125 C174.641,14.6719 175.031,14.0938 175.031,13.0625 C175.031,11.6875 174.219,10.2188 172.141,9.92188 M181.766,5.8125 L180.359,5.8125 L177.891,6.82812 L178.359,7.875 L180.594,6.98438 L180.594,14.9219 L178.203,14.9219 L178.203,16 L184.141,16 L184.141,14.9219 L181.766,14.9219 L181.766,5.8125 M190.391,6.78125 C190.828,6.78125 191.219,6.92188 191.594,7.20312 C192.5,7.90625 192.969,9.09375 192.969,10.7969 C192.969,12.6719 192.484,13.9688 191.516,14.6719 C191.156,14.9375 190.781,15.0781 190.359,15.0781 C189.922,15.0781 189.516,14.9375 189.172,14.7031 C188.172,14.0469 187.656,12.6875 187.656,10.7031 C187.656,8.65625 188.516,6.78125 190.391,6.78125 M186.453,10.7812 C186.453,13.1875 187.25,14.9688 188.781,15.7656 C189.266,16.0156 189.766,16.1406 190.297,16.1406 C190.828,16.1406 191.344,16.0312 191.812,15.7969 C193.422,14.9844 194.188,13.2188 194.188,10.7656 C194.188,8.46875 193.469,6.92188 192.016,6.125 C191.484,5.82812 190.953,5.6875 190.328,5.6875 C189.203,5.6875 188.25,6.15625 187.5,7.07812 C186.797,7.95312 186.453,9.17188 186.453,10.7812 M199.453,6.70312 C199.859,6.70312 200.234,6.75 200.5,6.875 C200.984,7.07812 201.438,7.51562 201.438,8.15625 C201.438,8.45312 201.359,8.71875 201.172,8.95312 C201,9.1875 200.594,9.5 199.969,9.89062 L199.797,9.82812 C199.578,9.76562 199.406,9.71875 199.266,9.65625 C198.297,9.3125 197.812,8.79688 197.812,8.125 C197.812,7.35938 198.656,6.70312 199.453,6.70312 M199.656,15.0781 C198.422,15.0781 197.266,14.2656 197.266,13.0938 C197.266,11.9062 198.359,11.1094 199.406,10.7969 C199.688,10.875 199.938,10.9531 200.156,11.0312 C201.359,11.5 201.938,12.2031 201.938,13.1562 C201.938,14.3594 200.922,15.0781 199.656,15.0781 M199.625,5.6875 C198.672,5.6875 197.938,5.9375 197.406,6.42188 C197.016,6.75 196.609,7.35938 196.609,8 C196.609,8.25 196.625,8.45312 196.672,8.625 C196.844,9.375 197.312,9.95312 198.078,10.3281 C197.062,10.8125 196.031,11.8438 196.031,13.2031 C196.031,13.7656 196.188,14.2656 196.516,14.7188 C197.109,15.5781 198.25,16.1406 199.656,16.1406 C200.953,16.1406 201.922,15.7031 202.609,14.8125 C203,14.2969 203.203,13.7031 203.203,13.0625 C203.203,12.4844 203.031,11.9688 202.703,11.5 C202.375,11.0312 201.875,10.625 201.172,10.3125 C201.672,9.96875 202.047,9.625 202.281,9.29688 C202.516,8.95312 202.609,8.57812 202.609,8.15625 C202.609,6.48438 201.391,5.6875 199.625,5.6875 M209.656,5.8125 L208.25,5.8125 L205.781,6.82812 L206.25,7.875 L208.484,6.98438 L208.484,14.9219 L206.094,14.9219 L206.094,16 L212.031,16 L212.031,14.9219 L209.656,14.9219 L209.656,5.8125 M218.625,9.92188 L220.844,6.1875 L220.844,5.8125 L214.734,5.8125 L214.734,6.875 L219.078,6.875 L216.984,10.3906 L216.984,10.8594 L217.062,10.8594 C217.969,10.8594 218.641,10.8594 219.156,11.1562 C220.109,11.7031 220.281,12.5 220.281,13.1406 C220.281,13.7344 219.984,14.1875 219.469,14.5625 C218.938,14.9375 218.281,15.0781 217.625,15.0781 C216.984,15.0781 216.141,14.9375 215.141,14.6719 L214.812,15.6406 C215.703,16.0156 216.578,16.2031 217.438,16.2031 L217.469,16.2031 C218.609,16.2031 219.625,15.9375 220.375,15.3125 C221.125,14.6719 221.516,14.0938 221.516,13.0625 C221.516,11.6875 220.703,10.2188 218.625,9.92188 M227.578,6.78125 C228.016,6.78125 228.406,6.92188 228.781,7.20312 C229.688,7.90625 230.156,9.09375 230.156,10.7969 C230.156,12.6719 229.672,13.9688 228.703,14.6719 C228.344,14.9375 227.969,15.0781 227.547,15.0781 C227.109,15.0781 226.703,14.9375 226.359,14.7031 C225.359,14.0469 224.844,12.6875 224.844,10.7031 C224.844,8.65625 225.703,6.78125 227.578,6.78125 M223.641,10.7812 C223.641,13.1875 224.438,14.9688 225.969,15.7656 C226.453,16.0156 226.953,16.1406 227.484,16.1406 C228.016,16.1406 228.531,16.0312 229,15.7969 C230.609,14.9844 231.375,13.2188 231.375,10.7656 C231.375,8.46875 230.656,6.92188 229.203,6.125 C228.672,5.82812 228.141,5.6875 227.516,5.6875 C226.391,5.6875 225.438,6.15625 224.688,7.07812 C223.984,7.95312 223.641,9.17188 223.641,10.7812 M235.969,10.6562 C237.062,10.6562 237.781,10.875 238.375,11.4219 C238.812,11.8125 239.031,12.2188 239.031,12.875 C239.031,13.6719 238.594,14.1562 238.109,14.5 C237.531,14.9219 236.812,15.0312 235.797,15.0312 C235,15.0312 234.328,14.9531 233.609,14.8125 L233.375,15.8906 C234.266,16.0781 235.109,16.1406 235.875,16.1406 C236.484,16.1406 237.078,16.1094 237.594,15.9844 C238.188,15.875 238.688,15.6094 239.141,15.2344 C239.891,14.6094 240.281,13.7812 240.281,12.7188 C240.281,12.25 240.188,11.8125 240,11.3906 C239.438,10.2344 238.281,9.57812 236.5,9.57812 C236.062,9.57812 235.562,9.60938 235,9.67188 L234.984,6.89062 L239.703,6.89062 L239.703,5.8125 L233.828,5.8125 L233.828,10.8281 C234.609,10.75 235.234,10.6562 235.969,10.6562 "/>
</g>

<g fill="none" stroke="#000000" stroke-opacity="1" stroke-width="1" stroke-linecap="square" stroke-linejoin="bevel" transform="matrix(2,0,0,2,2449.56,124)"
font-family="Cantarell" font-size="11" font-weight="400" font-style="normal" 
>
</g>

<g fill="none" stroke="#000000" stroke-opacity="1" stroke-width="1" stroke-linecap="square" stroke-linejoin="bevel" transform="matrix(2,0,0,2,2449.56,124)"
font-family="Cantarell" font-size="11" font-weight="400" font-style="normal" 
>
</g>

<g fill="none" stroke="#000000" stroke-opacity="1" stroke-width="1" stroke-linecap="square" stroke-linejoin="bevel" transform="matrix(2,0,0,2,-0.0032,181)"
font-family="Cantarell" font-size="11" font-weight="400" font-style="normal" 
>
</g>

<g fill="none" stroke="#000000" stroke-opacity="1" stroke-width="1" stroke-linecap="square" stroke-linejoin="bevel" transform="matrix(2,0,0,2,-0.0032,181)"
font-family="Cantarell" font-size="11" font-weight="400" font-style="normal" 
>
</g>

<g fill="none" stroke="#000000" stroke-opacity="1" stroke-width="1" stroke-linecap="square" stroke-linejoin="bevel" transform="matrix(2,0,0,2,-0.0032,181)"
font-family="Cantarell" font-size="11" font-weight="400" font-style="normal" 
>
</g>

<g fill="none" stroke="#000000" stroke-opacity="1" stroke-width="1" stroke-linecap="square" stroke-linejoin="round" transform="matrix(2,0,0,2,-0.0032,181)"
font-family="Cantarell" font-size="11" font-weight="400" font-style="normal" 
>
<path vector-effect="none" fill-rule="evenodd" d="M392.501,-35.5 L533.499,-35.5 L533.499,-0.5 L392.501,-0.5 L392.501,-35.5"/>
</g>

<g fill="none" stroke="#000000" stroke-opacity="1" stroke-width="1" stroke-linecap="square" stroke-linejoin="bevel" transform="matrix(2,0,0,2,-0.0032,181)"
font-family="Cantarell" font-size="11" font-weight="400" font-style="normal" 
>
</g>

<g fill="none" stroke="#000000" stroke-opacity="1" stroke-width="1" stroke-linecap="square" stroke-linejoin="bevel" transform="matrix(2,0,0,2,809.418,124)"
font-family="Cantarell" font-size="11" font-weight="400" font-style="normal" 
>
</g>

<g fill="none" stroke="#000000" stroke-opacity="1" stroke-width="1" stroke-linecap="square" stroke-linejoin="bevel" transform="matrix(2,0,0,2,809.418,124)"
font-family="Cantarell" font-size="11" font-weight="400" font-style="normal" 
>
</g>

<g fill="#000000" fill-opacity="1" stroke="#000000" stroke-opacity="1" stroke-width="1" stroke-linecap="square" stroke-linejoin="round" transform="matrix(2,0,0,2,809.418,124)"
font-family="Cantarell" font-size="11" font-weight="400" font-style="normal" 
>
<path vector-effect="non-scaling-stroke" fill-rule="nonzero" d="M3.84375,5.8125 L0.296875,16.6406 L1.51562,16.6406 L5.0625,5.8125 L3.84375,5.8125 M8.34375,15.1562 C7.48438,15.1562 6.64062,14.9688 5.84375,14.6719 L5.84375,15.7344 C6.5,16.0156 7.35938,16.1406 8.45312,16.1406 C9.53125,16.1406 10.3125,15.8281 10.7969,15.2031 C11.0469,14.9062 11.1562,14.5 11.1562,14.125 C11.1562,13.6719 11.0625,13.3281 10.75,12.9844 C10.4844,12.7031 10.25,12.4688 9.28125,12.1094 L8.20312,11.7188 C7.875,11.5938 7.65625,11.4844 7.54688,11.4062 C7.29688,11.25 7.125,11.125 7.125,10.7031 C7.125,10.5469 7.20312,10.3906 7.35938,10.25 C7.73438,9.89062 8.23438,9.79688 8.89062,9.79688 C9.79688,9.79688 10.4375,10.2031 10.7656,10.3438 L10.7656,9.35938 C10.125,9.0625 9.67188,8.85938 8.78125,8.84375 L8.71875,8.84375 C8.20312,8.84375 7.70312,8.9375 7.25,9.10938 C6.53125,9.39062 5.90625,9.89062 5.90625,10.8594 C5.90625,11.9844 6.85938,12.3281 7.4375,12.5938 L8.53125,13.0156 C8.89062,13.1562 9.25,13.3281 9.48438,13.4844 C9.76562,13.6875 9.90625,13.8906 9.90625,14.1719 C9.90625,14.875 9.125,15.1562 8.34375,15.1562 M15.4062,16.125 C15.9062,16.125 16.4219,16.0469 16.9688,15.875 L16.9688,14.9688 C16.5938,15.0781 16.1875,15.1406 15.7656,15.1406 C14.8594,15.1406 14.625,14.6562 14.625,13.7031 L14.625,9.90625 L16.9688,9.90625 L16.9688,8.90625 L14.625,8.90625 L14.625,7.09375 L13.4375,7.15625 L13.4375,8.90625 L12.2344,8.90625 L12.2344,9.90625 L13.4375,9.90625 L13.4375,13.7969 C13.4375,15.2969 13.9375,16.125 15.4062,16.125 M18.3594,8.92188 L18.3594,16 L19.5625,16 L19.5625,8.92188 L18.3594,8.92188 M18.3594,6.17188 L18.3594,7.39062 L19.5625,7.39062 L19.5625,6.17188 L18.3594,6.17188 M30.0156,11.5 L30.0156,16 L31.2031,16 L31.2031,11.2031 C31.2031,9.78125 30.4531,8.76562 29,8.76562 C28.6719,8.76562 28.3281,8.82812 27.9531,8.92188 C27.6406,9.01562 27.1562,9.26562 26.5156,9.6875 C26.1562,9.15625 25.5312,8.76562 24.7031,8.76562 C24.3906,8.76562 24.0625,8.8125 23.7188,8.90625 C23.4219,9 23.0312,9.17188 22.5469,9.48438 L22.3125,8.92188 L21.4688,8.92188 L21.4688,16 L22.6719,16 L22.6719,10.2969 C23.2969,9.9375 23.8594,9.75 24.3125,9.75 C25.3125,9.75 25.7188,10.4062 25.7188,11.5 L25.7188,16 L26.9062,16 L26.9062,11.2031 C26.9062,10.8594 26.8906,10.5781 26.8281,10.375 C27.5156,9.96875 28.125,9.75 28.625,9.75 C29.6094,9.75 30.0156,10.4062 30.0156,11.5 M34.2812,13.4531 L34.2812,8.95312 L33.0938,8.95312 L33.0938,13.75 C33.0938,15.25 33.9062,16.1719 35.4062,16.1719 C36.1406,16.1719 37,15.9375 37.8906,15.4688 L38.125,16 L38.9688,16 L38.9688,8.95312 L37.7656,8.95312 L37.7656,14.6562 C37.0469,14.9844 36.3906,15.1562 35.8281,15.1562 C34.6875,15.1562 34.2812,14.6406 34.2812,13.4531 M43.125,15.0469 C42.2188,15.0469 42.1875,14.5781 42.1875,14.0312 L42.1875,6.15625 L41.0156,6.15625 L41.0156,14.4531 C41.0312,15.4531 41.6094,16.1406 42.5469,16.1406 C43.2344,16.1406 43.7188,15.875 43.9688,15.7969 L43.9688,14.8906 C43.6406,14.9844 43.4062,15.0469 43.125,15.0469 M45.0469,8.92188 L45.0469,16 L46.25,16 L46.25,8.92188 L45.0469,8.92188 M45.0469,6.17188 L45.0469,7.39062 L46.25,7.39062 L46.25,6.17188 L45.0469,6.17188 M48.2812,14.9219 L48.2812,16 L54.4375,16 L54.4375,14.9219 L48.2812,14.9219 M57.6406,13.4531 L57.6406,8.95312 L56.4531,8.95312 L56.4531,13.75 C56.4531,15.25 57.2656,16.1719 58.7656,16.1719 C59.5,16.1719 60.3594,15.9375 61.25,15.4688 L61.4844,16 L62.3281,16 L62.3281,8.95312 L61.125,8.95312 L61.125,14.6562 C60.4062,14.9844 59.75,15.1562 59.1875,15.1562 C58.0469,15.1562 57.6406,14.6406 57.6406,13.4531 M66.6562,16.125 C67.1562,16.125 67.6719,16.0469 68.2188,15.875 L68.2188,14.9688 C67.8438,15.0781 67.4375,15.1406 67.0156,15.1406 C66.1094,15.1406 65.875,14.6562 65.875,13.7031 L65.875,9.90625 L68.2188,9.90625 L68.2188,8.90625 L65.875,8.90625 L65.875,7.09375 L64.6875,7.15625 L64.6875,8.90625 L63.4844,8.90625 L63.4844,9.90625 L64.6875,9.90625 L64.6875,13.7969 C64.6875,15.2969 65.1875,16.125 66.6562,16.125 M72.1875,16.125 C72.6875,16.125 73.2031,16.0469 73.75,15.875 L73.75,14.9688 C73.375,15.0781 72.9688,15.1406 72.5469,15.1406 C71.6406,15.1406 71.4062,14.6562 71.4062,13.7031 L71.4062,9.90625 L73.75,9.90625 L73.75,8.90625 L71.4062,8.90625 L71.4062,7.09375 L70.2188,7.15625 L70.2188,8.90625 L69.0156,8.90625 L69.0156,9.90625 L70.2188,9.90625 L70.2188,13.7969 C70.2188,15.2969 70.7188,16.125 72.1875,16.125 M78.2031,8.8125 C77.1875,8.8125 76.3906,9.17188 75.8125,9.90625 C75.2812,10.6406 75,11.5156 75,12.5781 C75,14.875 76.25,16.125 78.5625,16.125 C79.3594,16.125 80.125,16 80.8438,15.75 L80.8438,14.7969 C80.1406,15.0156 79.5,15.125 78.8906,15.125 C77.9844,15.125 77.3281,14.9062 76.9219,14.4688 C76.5,14.0312 76.2656,13.4688 76.2344,12.7969 L81.0469,12.7969 L81.1094,12.6875 L81.1094,12.0312 C81.1094,10 80.0781,8.8125 78.2031,8.8125 M79.9062,11.875 L76.25,11.875 C76.3906,10.75 76.9844,9.76562 78.3125,9.76562 C79.4062,9.76562 79.9062,10.7188 79.9062,11.875 M85.9375,8.79688 C85.25,8.79688 84.6094,9.03125 83.9688,9.51562 L83.7344,8.9375 L82.8594,8.9375 L82.8594,16 L84.0781,16 L84.0781,10.375 C84.5938,10.0312 85.125,9.84375 85.6875,9.84375 C86.0469,9.84375 86.3906,9.9375 86.7656,10.0938 L86.9062,10.0938 L86.9062,8.9375 C86.6094,8.84375 86.2812,8.79688 85.9375,8.79688 M90.5,9.82812 C91.3906,9.82812 91.9219,10.1094 92.125,10.6719 C92.2031,10.9062 92.25,11.2656 92.25,11.7656 L92.25,11.8281 C91.1719,11.8594 90.2812,11.9688 89.5781,12.1406 C88.6562,12.3906 87.8438,13.0625 87.8438,14.2344 C87.8438,15.3906 88.8906,16.1719 90.125,16.1719 C90.9219,16.1719 91.6406,15.875 92.2969,15.3438 L92.5625,16 L93.4531,16 L93.4531,11.4062 C93.4531,10.25 93.2188,9.71875 92.4688,9.21875 C92.0781,8.95312 91.4531,8.82812 90.6406,8.82812 C89.8125,8.82812 89.0156,8.96875 88.2656,9.26562 L88.2656,10.2188 C88.8594,10.0156 89.9062,9.82812 90.5,9.82812 M90.2969,15.2188 C90.125,15.2188 89.9531,15.1875 89.8125,15.1406 C89.4062,14.9375 89.0312,14.5938 89.0312,14.0938 C89.0312,13.9219 89.0938,13.75 89.2031,13.5781 C89.4375,13.2031 89.8281,12.9688 90.375,12.8438 C90.6719,12.7812 91.2812,12.7344 92.25,12.7188 L92.25,14.4062 C91.7344,14.9062 91.1562,15.2188 90.2969,15.2188 M100.031,11.5 L100.031,16 L101.219,16 L101.219,11.2031 C101.219,9.70312 100.422,8.78125 98.9219,8.78125 C98.1719,8.78125 97.3125,9.01562 96.4219,9.48438 L96.1875,8.92188 L95.3438,8.92188 L95.3438,16 L96.5469,16 L96.5469,10.2969 C97.2656,9.96875 97.9375,9.79688 98.5,9.79688 C99.6406,9.79688 100.031,10.3125 100.031,11.5 M106.172,16.1406 L106.25,16.1406 C106.859,16.1406 107.484,16.0156 108.172,15.75 L107.891,14.9375 C107.438,15.1094 106.984,15.1719 106.594,15.1719 C106.484,15.1719 106.375,15.1719 106.266,15.1562 C104.703,14.9688 103.969,14.1094 103.969,12.375 C103.969,10.7188 104.797,9.79688 106.484,9.79688 C106.906,9.79688 107.422,9.875 107.953,10.0625 L108.25,9.21875 C107.609,8.9375 106.984,8.79688 106.422,8.79688 C105.188,8.79688 104.297,9.14062 103.688,9.85938 C103.109,10.5469 102.828,11.4531 102.828,12.5781 C102.828,14.8281 103.984,16.1406 106.172,16.1406 M112.875,8.8125 C111.859,8.8125 111.062,9.17188 110.484,9.90625 C109.953,10.6406 109.672,11.5156 109.672,12.5781 C109.672,14.875 110.922,16.125 113.234,16.125 C114.031,16.125 114.797,16 115.516,15.75 L115.516,14.7969 C114.812,15.0156 114.172,15.125 113.562,15.125 C112.656,15.125 112,14.9062 111.594,14.4688 C111.172,14.0312 110.938,13.4688 110.906,12.7969 L115.719,12.7969 L115.781,12.6875 L115.781,12.0312 C115.781,10 114.75,8.8125 112.875,8.8125 M114.578,11.875 L110.922,11.875 C111.062,10.75 111.656,9.76562 112.984,9.76562 C114.078,9.76562 114.578,10.7188 114.578,11.875 "/>
</g>

<g fill="none" stroke="#000000" stroke-opacity="1" stroke-width="1" stroke-linecap="square" stroke-linejoin="bevel" transform="matrix(2,0,0,2,809.418,124)"
font-family="Cantarell" font-size="11" font-weight="400" font-style="normal" 
>
</g>

<g fill="none" stroke="#000000" stroke-opacity="1" stroke-width="1" stroke-linecap="square" stroke-linejoin="bevel" transform="matrix(2,0,0,2,809.418,124)"
font-family="Cantarell" font-size="11" font-weight="400" font-style="normal" 
>
</g>

<g fill="none" stroke="#000000" stroke-opacity="1" stroke-width="1" stroke-linecap="square" stroke-linejoin="bevel" transform="matrix(2,0,0,2,-0.0032,181)"
font-family="Cantarell" font-size="11" font-weight="400" font-style="normal" 
>
</g>

<g fill="none" stroke="#000000" stroke-opacity="1" stroke-width="1" stroke-linecap="square" stroke-linejoin="bevel" transform="matrix(2,0,0,2,-0.0032,181)"
font-family="Cantarell" font-size="11" font-weight="400" font-style="normal" 
>
</g>

<g fill="none" stroke="#000000" stroke-opacity="1" stroke-width="1" stroke-linecap="square" stroke-linejoin="bevel" transform="matrix(2,0,0,2,-0.0032,181)"
font-family="Cantarell" font-size="11" font-weight="400" font-style="normal" 
>
</g>

<g fill="none" stroke="#000000" stroke-opacity="1" stroke-width="1" stroke-linecap="square" stroke-linejoin="round" transform="matrix(2,0,0,2,-0.0032,181)"
font-family="Cantarell" font-size="11" font-weight="400" font-style="normal" 
>
<path vector-effect="none" fill-rule="evenodd" d="M1028.5,-35.5 L1131.5,-35.5 L1131.5,-0.5 L1028.5,-0.5 L1028.5,-35.5"/>
</g>

<g fill="none" stroke="#000000" stroke-opacity="1" stroke-width="1" stroke-linecap="square" stroke-linejoin="bevel" transform="matrix(2,0,0,2,-0.0032,181)"
font-family="Cantarell" font-size="11" font-weight="400" font-style="normal" 
>
</g>

<g fill="none" stroke="#000000" stroke-opacity="1" stroke-width="1" stroke-linecap="square" stroke-linejoin="bevel" transform="matrix(2,0,0,2,2077.06,124)"
font-family="Cantarell" font-size="11" font-weight="400" font-style="normal" 
>
</g>

<g fill="none" stroke="#000000" stroke-opacity="1" stroke-width="1" stroke-linecap="square" stroke-linejoin="bevel" transform="matrix(2,0,0,2,2077.06,124)"
font-family="Cantarell" font-size="11" font-weight="400" font-style="normal" 
>
</g>

<g fill="#000000" fill-opacity="1" stroke="#000000" stroke-opacity="1" stroke-width="1" stroke-linecap="square" stroke-linejoin="round" transform="matrix(2,0,0,2,2077.06,124)"
font-family="Cantarell" font-size="11" font-weight="400" font-style="normal" 
>
<path vector-effect="non-scaling-stroke" fill-rule="nonzero" d="M3.84375,5.8125 L0.296875,16.6406 L1.51562,16.6406 L5.0625,5.8125 L3.84375,5.8125 M8.95312,15.1406 C8.23438,15.1406 7.85938,14.9688 7.35938,14.6875 L7.35938,10.0469 C7.875,9.8125 8.39062,9.71875 8.95312,9.71875 C10.4844,9.71875 11.25,10.8438 11.25,12.4375 C11.25,14.0156 10.5156,15.1406 8.95312,15.1406 M9.21875,16.125 C11.3906,16.125 12.5,14.6562 12.5,12.5312 C12.5,11.3125 12.1562,10.3594 11.4844,9.6875 C10.8438,9.0625 10.0312,8.75 9.0625,8.75 C8.48438,8.75 7.92188,8.84375 7.35938,9.09375 L7.35938,6.17188 L6.14062,6.17188 L6.14062,16 L7,16 L7.21875,15.5 C7.84375,15.9062 8.51562,16.125 9.21875,16.125 M17.4844,15.1406 C15.9375,15.1406 15.2031,14.0156 15.2031,12.4375 C15.2031,10.8594 15.9375,9.71875 17.5,9.71875 C18.0625,9.71875 18.5781,9.8125 19.0938,10.0312 L19.0938,14.6875 C18.5938,14.9688 18.2031,15.1406 17.4844,15.1406 M17.2188,16.125 C17.9375,16.125 18.6094,15.9062 19.2344,15.5 L19.4375,16 L20.3125,16 L20.3125,6.17188 L19.0938,6.17188 L19.0938,9.09375 C18.5312,8.84375 17.9531,8.75 17.3906,8.75 C16.4219,8.75 15.6094,9.0625 14.9688,9.6875 C14.2969,10.3594 13.9531,11.3125 13.9531,12.5312 C13.9531,14.6562 15.0469,16.125 17.2188,16.125 M22.2031,8.92188 L22.2031,16 L23.4062,16 L23.4062,8.92188 L22.2031,8.92188 M22.2031,6.17188 L22.2031,7.39062 L23.4062,7.39062 L23.4062,6.17188 L22.2031,6.17188 M25.4375,14.9219 L25.4375,16 L31.5938,16 L31.5938,14.9219 L25.4375,14.9219 M35.9688,9.82812 C36.8594,9.82812 37.3906,10.1094 37.5938,10.6719 C37.6719,10.9062 37.7188,11.2656 37.7188,11.7656 L37.7188,11.8281 C36.6406,11.8594 35.75,11.9688 35.0469,12.1406 C34.125,12.3906 33.3125,13.0625 33.3125,14.2344 C33.3125,15.3906 34.3594,16.1719 35.5938,16.1719 C36.3906,16.1719 37.1094,15.875 37.7656,15.3438 L38.0312,16 L38.9219,16 L38.9219,11.4062 C38.9219,10.25 38.6875,9.71875 37.9375,9.21875 C37.5469,8.95312 36.9219,8.82812 36.1094,8.82812 C35.2812,8.82812 34.4844,8.96875 33.7344,9.26562 L33.7344,10.2188 C34.3281,10.0156 35.375,9.82812 35.9688,9.82812 M35.7656,15.2188 C35.5938,15.2188 35.4219,15.1875 35.2812,15.1406 C34.875,14.9375 34.5,14.5938 34.5,14.0938 C34.5,13.9219 34.5625,13.75 34.6719,13.5781 C34.9062,13.2031 35.2969,12.9688 35.8438,12.8438 C36.1406,12.7812 36.75,12.7344 37.7188,12.7188 L37.7188,14.4062 C37.2031,14.9062 36.625,15.2188 35.7656,15.2188 M43.3906,16.125 C43.8906,16.125 44.4062,16.0469 44.9531,15.875 L44.9531,14.9688 C44.5781,15.0781 44.1719,15.1406 43.75,15.1406 C42.8438,15.1406 42.6094,14.6562 42.6094,13.7031 L42.6094,9.90625 L44.9531,9.90625 L44.9531,8.90625 L42.6094,8.90625 L42.6094,7.09375 L41.4219,7.15625 L41.4219,8.90625 L40.2188,8.90625 L40.2188,9.90625 L41.4219,9.90625 L41.4219,13.7969 C41.4219,15.2969 41.9219,16.125 43.3906,16.125 M48.9219,16.125 C49.4219,16.125 49.9375,16.0469 50.4844,15.875 L50.4844,14.9688 C50.1094,15.0781 49.7031,15.1406 49.2812,15.1406 C48.375,15.1406 48.1406,14.6562 48.1406,13.7031 L48.1406,9.90625 L50.4844,9.90625 L50.4844,8.90625 L48.1406,8.90625 L48.1406,7.09375 L46.9531,7.15625 L46.9531,8.90625 L45.75,8.90625 L45.75,9.90625 L46.9531,9.90625 L46.9531,13.7969 C46.9531,15.2969 47.4531,16.125 48.9219,16.125 M51.875,8.92188 L51.875,16 L53.0781,16 L53.0781,8.92188 L51.875,8.92188 M51.875,6.17188 L51.875,7.39062 L53.0781,7.39062 L53.0781,6.17188 L51.875,6.17188 M57.5625,16.125 C58.0625,16.125 58.5781,16.0469 59.125,15.875 L59.125,14.9688 C58.75,15.0781 58.3438,15.1406 57.9219,15.1406 C57.0156,15.1406 56.7812,14.6562 56.7812,13.7031 L56.7812,9.90625 L59.125,9.90625 L59.125,8.90625 L56.7812,8.90625 L56.7812,7.09375 L55.5938,7.15625 L55.5938,8.90625 L54.3906,8.90625 L54.3906,9.90625 L55.5938,9.90625 L55.5938,13.7969 C55.5938,15.2969 56.0938,16.125 57.5625,16.125 M61.7031,13.4531 L61.7031,8.95312 L60.5156,8.95312 L60.5156,13.75 C60.5156,15.25 61.3281,16.1719 62.8281,16.1719 C63.5625,16.1719 64.4219,15.9375 65.3125,15.4688 L65.5469,16 L66.3906,16 L66.3906,8.95312 L65.1875,8.95312 L65.1875,14.6562 C64.4688,14.9844 63.8125,15.1562 63.25,15.1562 C62.1094,15.1562 61.7031,14.6406 61.7031,13.4531 M71.4531,15.1406 C69.9062,15.1406 69.1719,14.0156 69.1719,12.4375 C69.1719,10.8594 69.9062,9.71875 71.4688,9.71875 C72.0312,9.71875 72.5469,9.8125 73.0625,10.0312 L73.0625,14.6875 C72.5625,14.9688 72.1719,15.1406 71.4531,15.1406 M71.1875,16.125 C71.9062,16.125 72.5781,15.9062 73.2031,15.5 L73.4062,16 L74.2812,16 L74.2812,6.17188 L73.0625,6.17188 L73.0625,9.09375 C72.5,8.84375 71.9219,8.75 71.3594,8.75 C70.3906,8.75 69.5781,9.0625 68.9375,9.6875 C68.2656,10.3594 67.9219,11.3125 67.9219,12.5312 C67.9219,14.6562 69.0156,16.125 71.1875,16.125 M79.2344,8.8125 C78.2188,8.8125 77.4219,9.17188 76.8438,9.90625 C76.3125,10.6406 76.0312,11.5156 76.0312,12.5781 C76.0312,14.875 77.2812,16.125 79.5938,16.125 C80.3906,16.125 81.1562,16 81.875,15.75 L81.875,14.7969 C81.1719,15.0156 80.5312,15.125 79.9219,15.125 C79.0156,15.125 78.3594,14.9062 77.9531,14.4688 C77.5312,14.0312 77.2969,13.4688 77.2656,12.7969 L82.0781,12.7969 L82.1406,12.6875 L82.1406,12.0312 C82.1406,10 81.1094,8.8125 79.2344,8.8125 M80.9375,11.875 L77.2812,11.875 C77.4219,10.75 78.0156,9.76562 79.3438,9.76562 C80.4375,9.76562 80.9375,10.7188 80.9375,11.875 "/>
</g>

<g fill="none" stroke="#000000" stroke-opacity="1" stroke-width="1" stroke-linecap="square" stroke-linejoin="bevel" transform="matrix(2,0,0,2,2077.06,124)"
font-family="Cantarell" font-size="11" font-weight="400" font-style="normal" 
>
</g>

<g fill="none" stroke="#000000" stroke-opacity="1" stroke-width="1" stroke-linecap="square" stroke-linejoin="bevel" transform="matrix(2,0,0,2,2077.06,124)"
font-family="Cantarell" font-size="11" font-weight="400" font-style="normal" 
>
</g>

<g fill="none" stroke="#000000" stroke-opacity="1" stroke-width="1" stroke-linecap="square" stroke-linejoin="bevel" transform="matrix(2,0,0,2,-0.0032,181)"
font-family="Cantarell" font-size="11" font-weight="400" font-style="normal" 
>
</g>

<g fill="none" stroke="#000000" stroke-opacity="1" stroke-width="1" stroke-linecap="square" stroke-linejoin="bevel" transform="matrix(2,0,0,2,-0.0032,181)"
font-family="Cantarell" font-size="11" font-weight="400" font-style="normal" 
>
</g>

<g fill="none" stroke="#000000" stroke-opacity="1" stroke-width="1" stroke-linecap="square" stroke-linejoin="bevel" transform="matrix(2,0,0,2,-0.0032,181)"
font-family="Cantarell" font-size="11" font-weight="400" font-style="normal" 
>
</g>

<g fill="none" stroke="#000000" stroke-opacity="1" stroke-width="1" stroke-linecap="square" stroke-linejoin="round" transform="matrix(2,0,0,2,-0.0032,181)"
font-family="Cantarell" font-size="11" font-weight="400" font-style="normal" 
>
<path vector-effect="none" fill-rule="evenodd" d="M247.498,-72 C247.498,-62.0589 216.383,-54 178,-54 C139.617,-54 108.502,-62.0589 108.502,-72 C108.502,-81.9411 139.617,-90 178,-90 C216.383,-90 247.498,-81.9411 247.498,-72 "/>
</g>

<g fill="none" stroke="#000000" stroke-opacity="1" stroke-width="1" stroke-linecap="square" stroke-linejoin="bevel" transform="matrix(2,0,0,2,-0.0032,181)"
font-family="Cantarell" font-size="11" font-weight="400" font-style="normal" 
>
</g>

<g fill="none" stroke="#000000" stroke-opacity="1" stroke-width="1" stroke-linecap="square" stroke-linejoin="bevel" transform="matrix(2,0,0,2,273.137,16.0001)"
font-family="Cantarell" font-size="11" font-weight="400" font-style="normal" 
>
</g>

<g fill="none" stroke="#000000" stroke-opacity="1" stroke-width="1" stroke-linecap="square" stroke-linejoin="bevel" transform="matrix(2,0,0,2,273.137,16.0001)"
font-family="Cantarell" font-size="11" font-weight="400" font-style="normal" 
>
</g>

<g fill="#000000" fill-opacity="1" stroke="#000000" stroke-opacity="1" stroke-width="1" stroke-linecap="square" stroke-linejoin="round" transform="matrix(2,0,0,2,273.137,16.0001)"
font-family="Cantarell" font-size="11" font-weight="400" font-style="normal" 
>
<path vector-effect="non-scaling-stroke" fill-rule="nonzero" d="M3.84375,5.8125 L0.296875,16.6406 L1.51562,16.6406 L5.0625,5.8125 L3.84375,5.8125 M6.21875,17.1406 C6.21875,18 5.82812,18.5938 5.0625,18.9688 L5.5,19.8594 C6.15625,19.625 6.76562,19.25 7.04688,18.6406 C7.3125,18.0938 7.40625,17.9375 7.40625,16.9375 L7.375,8.92188 L6.20312,8.92188 L6.21875,17 L6.21875,17.1406 M6.1875,6.17188 L6.1875,7.39062 L7.39062,7.39062 L7.39062,6.17188 L6.1875,6.17188 M11.5,15.1562 C10.6406,15.1562 9.79688,14.9688 9,14.6719 L9,15.7344 C9.65625,16.0156 10.5156,16.1406 11.6094,16.1406 C12.6875,16.1406 13.4688,15.8281 13.9531,15.2031 C14.2031,14.9062 14.3125,14.5 14.3125,14.125 C14.3125,13.6719 14.2188,13.3281 13.9062,12.9844 C13.6406,12.7031 13.4062,12.4688 12.4375,12.1094 L11.3594,11.7188 C11.0312,11.5938 10.8125,11.4844 10.7031,11.4062 C10.4531,11.25 10.2812,11.125 10.2812,10.7031 C10.2812,10.5469 10.3594,10.3906 10.5156,10.25 C10.8906,9.89062 11.3906,9.79688 12.0469,9.79688 C12.9531,9.79688 13.5938,10.2031 13.9219,10.3438 L13.9219,9.35938 C13.2812,9.0625 12.8281,8.85938 11.9375,8.84375 L11.875,8.84375 C11.3594,8.84375 10.8594,8.9375 10.4062,9.10938 C9.6875,9.39062 9.0625,9.89062 9.0625,10.8594 C9.0625,11.9844 10.0156,12.3281 10.5938,12.5938 L11.6875,13.0156 C12.0469,13.1562 12.4062,13.3281 12.6406,13.4844 C12.9219,13.6875 13.0625,13.8906 13.0625,14.1719 C13.0625,14.875 12.2812,15.1562 11.5,15.1562 M19.25,9.75 C20.6875,9.75 21.4375,10.9688 21.4375,12.4844 C21.4375,13.9844 20.7031,15.1875 19.25,15.1875 C17.8125,15.1875 17.0625,13.9688 17.0625,12.4844 C17.0625,10.9844 17.8125,9.75 19.25,9.75 M19.2188,16.1406 C21.3906,16.1406 22.6562,14.6719 22.6562,12.4688 C22.6562,10.25 21.4531,8.8125 19.2656,8.8125 C17.0938,8.8125 15.8438,10.2656 15.8438,12.4844 C15.8438,14.6719 17.0469,16.1406 19.2188,16.1406 M29.0781,11.5 L29.0781,16 L30.2656,16 L30.2656,11.2031 C30.2656,9.70312 29.4688,8.78125 27.9688,8.78125 C27.2188,8.78125 26.3594,9.01562 25.4688,9.48438 L25.2344,8.92188 L24.3906,8.92188 L24.3906,16 L25.5938,16 L25.5938,10.2969 C26.3125,9.96875 26.9844,9.79688 27.5469,9.79688 C28.6875,9.79688 29.0781,10.3125 29.0781,11.5 M32.1406,14.9219 L32.1406,16 L38.2969,16 L38.2969,14.9219 L32.1406,14.9219 M43.125,9.79688 C44.6719,9.79688 45.4375,10.9062 45.4375,12.4844 C45.4375,14.0625 44.625,15.2344 43.125,15.2344 C42.5781,15.2344 42.0469,15.125 41.5312,14.9062 L41.5312,10.2344 C42.0312,9.95312 42.4062,9.79688 43.125,9.79688 M41.5312,19.8281 L41.5312,15.8438 C42.0938,16.0781 42.6562,16.1875 43.2344,16.1875 C44.2031,16.1875 45.0156,15.8594 45.6562,15.2188 C46.3281,14.5625 46.6875,13.6094 46.6875,12.3906 C46.6875,10.9219 46.1719,9.89062 45.1875,9.26562 C44.6875,8.95312 44.0938,8.79688 43.3906,8.79688 C42.6875,8.79688 42.0312,9.01562 41.4062,9.42188 L41.1719,8.92188 L40.3125,8.92188 L40.3125,19.8281 L41.5312,19.8281 M51.4375,8.79688 C50.75,8.79688 50.1094,9.03125 49.4688,9.51562 L49.2344,8.9375 L48.3594,8.9375 L48.3594,16 L49.5781,16 L49.5781,10.375 C50.0938,10.0312 50.625,9.84375 51.1875,9.84375 C51.5469,9.84375 51.8906,9.9375 52.2656,10.0938 L52.4062,10.0938 L52.4062,8.9375 C52.1094,8.84375 51.7812,8.79688 51.4375,8.79688 M56.9062,9.75 C58.3438,9.75 59.0938,10.9688 59.0938,12.4844 C59.0938,13.9844 58.3594,15.1875 56.9062,15.1875 C55.4688,15.1875 54.7188,13.9688 54.7188,12.4844 C54.7188,10.9844 55.4688,9.75 56.9062,9.75 M56.875,16.1406 C59.0469,16.1406 60.3125,14.6719 60.3125,12.4688 C60.3125,10.25 59.1094,8.8125 56.9219,8.8125 C54.75,8.8125 53.5,10.2656 53.5,12.4844 C53.5,14.6719 54.7031,16.1406 56.875,16.1406 M64.4531,15.0469 C63.5469,15.0469 63.5156,14.5781 63.5156,14.0312 L63.5156,6.15625 L62.3438,6.15625 L62.3438,14.4531 C62.3594,15.4531 62.9375,16.1406 63.875,16.1406 C64.5625,16.1406 65.0469,15.875 65.2969,15.7969 L65.2969,14.8906 C64.9688,14.9844 64.7344,15.0469 64.4531,15.0469 M69.6406,9.75 C71.0781,9.75 71.8281,10.9688 71.8281,12.4844 C71.8281,13.9844 71.0938,15.1875 69.6406,15.1875 C68.2031,15.1875 67.4531,13.9688 67.4531,12.4844 C67.4531,10.9844 68.2031,9.75 69.6406,9.75 M69.6094,16.1406 C71.7812,16.1406 73.0469,14.6719 73.0469,12.4688 C73.0469,10.25 71.8438,8.8125 69.6562,8.8125 C67.4844,8.8125 66.2344,10.2656 66.2344,12.4844 C66.2344,14.6719 67.4375,16.1406 69.6094,16.1406 M79.6719,15.6562 L79.6719,15.875 C79.6719,16.3281 79.6719,16.6406 79.6406,16.8438 C79.5,18.125 78.625,18.9062 77.1875,18.9062 C76.6719,18.9062 76.125,18.7812 75.5,18.5625 L75.1719,19.4219 C75.7656,19.6875 76.6406,19.8906 77.3438,19.8906 C78.4219,19.8906 79.3281,19.5156 79.9062,18.9844 C80.6094,18.2969 80.8438,17.6562 80.8438,16.3438 L80.8438,8.92188 L80.0156,8.92188 L79.875,9.32812 L79.5312,9.1875 C78.9531,8.92188 78.3906,8.79688 77.8594,8.79688 C77.4531,8.79688 77.0625,8.85938 76.6719,9.03125 C75.3906,9.57812 74.6406,10.7812 74.6406,12.5781 C74.6406,13.5 74.8125,14.1875 75.2188,14.7969 C75.7656,15.5938 76.5781,16.125 77.7969,16.125 C78.5,16.125 79.0625,15.9844 79.6719,15.6562 M78.0781,15.1719 C77.7031,15.1719 77.3438,15.0938 77.0312,14.9062 C76.25,14.4844 75.7656,13.5625 75.7656,12.4219 C75.7656,10.875 76.5,9.76562 78.0312,9.76562 C78.5156,9.76562 79.0469,9.875 79.6719,10.125 L79.6719,14.7812 C79.2188,15.0312 78.7031,15.1719 78.0781,15.1719 "/>
</g>

<g fill="none" stroke="#000000" stroke-opacity="1" stroke-width="1" stroke-linecap="square" stroke-linejoin="bevel" transform="matrix(2,0,0,2,273.137,16.0001)"
font-family="Cantarell" font-size="11" font-weight="400" font-style="normal" 
>
</g>

<g fill="none" stroke="#000000" stroke-opacity="1" stroke-width="1" stroke-linecap="square" stroke-linejoin="bevel" transform="matrix(2,0,0,2,273.137,16.0001)"
font-family="Cantarell" font-size="11" font-weight="400" font-style="normal" 
>
</g>

<g fill="none" stroke="#000000" stroke-opacity="1" stroke-width="1" stroke-linecap="square" stroke-linejoin="bevel" transform="matrix(2,0,0,2,-0.0032,181)"
font-family="Cantarell" font-size="11" font-weight="400" font-style="normal" 
>
</g>

<g fill="none" stroke="#000000" stroke-opacity="1" stroke-width="1" stroke-linecap="square" stroke-linejoin="bevel" transform="matrix(2,0,0,2,-0.0032,181)"
font-family="Cantarell" font-size="11" font-weight="400" font-style="normal" 
>
</g>

<g fill="none" stroke="#000000" stroke-opacity="1" stroke-width="1" stroke-linecap="square" stroke-linejoin="bevel" transform="matrix(2,0,0,2,-0.0032,181)"
font-family="Cantarell" font-size="11" font-weight="400" font-style="normal" 
>
</g>

<g fill="none" stroke="#000000" stroke-opacity="1" stroke-width="1" stroke-linecap="square" stroke-linejoin="round" transform="matrix(2,0,0,2,-0.0032,181)"
font-family="Cantarell" font-size="11" font-weight="400" font-style="normal" 
>
<path vector-effect="none" fill-rule="evenodd" d="M990.499,-18 C990.499,-8.05885 896.703,4e-05 781,4e-05 C665.297,4e-05 571.501,-8.05885 571.501,-18 C571.501,-27.9411 665.297,-36 781,-36 C896.703,-36 990.499,-27.9411 990.499,-18 "/>
</g>

<g fill="none" stroke="#000000" stroke-opacity="1" stroke-width="1" stroke-linecap="square" stroke-linejoin="bevel" transform="matrix(2,0,0,2,-0.0032,181)"
font-family="Cantarell" font-size="11" font-weight="400" font-style="normal" 
>
</g>

<g fill="none" stroke="#000000" stroke-opacity="1" stroke-width="1" stroke-linecap="square" stroke-linejoin="bevel" transform="matrix(2,0,0,2,1276.07,124)"
font-family="Cantarell" font-size="11" font-weight="400" font-style="normal" 
>
</g>

<g fill="none" stroke="#000000" stroke-opacity="1" stroke-width="1" stroke-linecap="square" stroke-linejoin="bevel" transform="matrix(2,0,0,2,1276.07,124)"
font-family="Cantarell" font-size="11" font-weight="400" font-style="normal" 
>
</g>

<g fill="#000000" fill-opacity="1" stroke="#000000" stroke-opacity="1" stroke-width="1" stroke-linecap="square" stroke-linejoin="round" transform="matrix(2,0,0,2,1276.07,124)"
font-family="Cantarell" font-size="11" font-weight="400" font-style="normal" 
>
<path vector-effect="non-scaling-stroke" fill-rule="nonzero" d="M3.84375,5.8125 L0.296875,16.6406 L1.51562,16.6406 L5.0625,5.8125 L3.84375,5.8125 M8.95312,9.79688 C10.5,9.79688 11.2656,10.9062 11.2656,12.4844 C11.2656,14.0625 10.4531,15.2344 8.95312,15.2344 C8.40625,15.2344 7.875,15.125 7.35938,14.9062 L7.35938,10.2344 C7.85938,9.95312 8.23438,9.79688 8.95312,9.79688 M7.35938,19.8281 L7.35938,15.8438 C7.92188,16.0781 8.48438,16.1875 9.0625,16.1875 C10.0312,16.1875 10.8438,15.8594 11.4844,15.2188 C12.1562,14.5625 12.5156,13.6094 12.5156,12.3906 C12.5156,10.9219 12,9.89062 11.0156,9.26562 C10.5156,8.95312 9.92188,8.79688 9.21875,8.79688 C8.51562,8.79688 7.85938,9.01562 7.23438,9.42188 L7,8.92188 L6.14062,8.92188 L6.14062,19.8281 L7.35938,19.8281 M17.25,8.8125 C16.2344,8.8125 15.4375,9.17188 14.8594,9.90625 C14.3281,10.6406 14.0469,11.5156 14.0469,12.5781 C14.0469,14.875 15.2969,16.125 17.6094,16.125 C18.4062,16.125 19.1719,16 19.8906,15.75 L19.8906,14.7969 C19.1875,15.0156 18.5469,15.125 17.9375,15.125 C17.0312,15.125 16.375,14.9062 15.9688,14.4688 C15.5469,14.0312 15.3125,13.4688 15.2812,12.7969 L20.0938,12.7969 L20.1562,12.6875 L20.1562,12.0312 C20.1562,10 19.125,8.8125 17.25,8.8125 M18.9531,11.875 L15.2969,11.875 C15.4375,10.75 16.0312,9.76562 17.3594,9.76562 C18.4531,9.76562 18.9531,10.7188 18.9531,11.875 M24.9844,8.79688 C24.2969,8.79688 23.6562,9.03125 23.0156,9.51562 L22.7812,8.9375 L21.9062,8.9375 L21.9062,16 L23.125,16 L23.125,10.375 C23.6406,10.0312 24.1719,9.84375 24.7344,9.84375 C25.0938,9.84375 25.4375,9.9375 25.8125,10.0938 L25.9531,10.0938 L25.9531,8.9375 C25.6562,8.84375 25.3281,8.79688 24.9844,8.79688 M30.3906,16.1406 L30.4688,16.1406 C31.0781,16.1406 31.7031,16.0156 32.3906,15.75 L32.1094,14.9375 C31.6562,15.1094 31.2031,15.1719 30.8125,15.1719 C30.7031,15.1719 30.5938,15.1719 30.4844,15.1562 C28.9219,14.9688 28.1875,14.1094 28.1875,12.375 C28.1875,10.7188 29.0156,9.79688 30.7031,9.79688 C31.125,9.79688 31.6406,9.875 32.1719,10.0625 L32.4688,9.21875 C31.8281,8.9375 31.2031,8.79688 30.6406,8.79688 C29.4062,8.79688 28.5156,9.14062 27.9062,9.85938 C27.3281,10.5469 27.0469,11.4531 27.0469,12.5781 C27.0469,14.8281 28.2031,16.1406 30.3906,16.1406 M37.0938,8.8125 C36.0781,8.8125 35.2812,9.17188 34.7031,9.90625 C34.1719,10.6406 33.8906,11.5156 33.8906,12.5781 C33.8906,14.875 35.1406,16.125 37.4531,16.125 C38.25,16.125 39.0156,16 39.7344,15.75 L39.7344,14.7969 C39.0312,15.0156 38.3906,15.125 37.7812,15.125 C36.875,15.125 36.2188,14.9062 35.8125,14.4688 C35.3906,14.0312 35.1562,13.4688 35.125,12.7969 L39.9375,12.7969 L40,12.6875 L40,12.0312 C40,10 38.9688,8.8125 37.0938,8.8125 M38.7969,11.875 L35.1406,11.875 C35.2812,10.75 35.875,9.76562 37.2031,9.76562 C38.2969,9.76562 38.7969,10.7188 38.7969,11.875 M44.5625,9.79688 C46.1094,9.79688 46.875,10.9062 46.875,12.4844 C46.875,14.0625 46.0625,15.2344 44.5625,15.2344 C44.0156,15.2344 43.4844,15.125 42.9688,14.9062 L42.9688,10.2344 C43.4688,9.95312 43.8438,9.79688 44.5625,9.79688 M42.9688,19.8281 L42.9688,15.8438 C43.5312,16.0781 44.0938,16.1875 44.6719,16.1875 C45.6406,16.1875 46.4531,15.8594 47.0938,15.2188 C47.7656,14.5625 48.125,13.6094 48.125,12.3906 C48.125,10.9219 47.6094,9.89062 46.625,9.26562 C46.125,8.95312 45.5312,8.79688 44.8281,8.79688 C44.125,8.79688 43.4688,9.01562 42.8438,9.42188 L42.6094,8.92188 L41.75,8.92188 L41.75,19.8281 L42.9688,19.8281 M52.375,16.125 C52.875,16.125 53.3906,16.0469 53.9375,15.875 L53.9375,14.9688 C53.5625,15.0781 53.1562,15.1406 52.7344,15.1406 C51.8281,15.1406 51.5938,14.6562 51.5938,13.7031 L51.5938,9.90625 L53.9375,9.90625 L53.9375,8.90625 L51.5938,8.90625 L51.5938,7.09375 L50.4062,7.15625 L50.4062,8.90625 L49.2031,8.90625 L49.2031,9.90625 L50.4062,9.90625 L50.4062,13.7969 C50.4062,15.2969 50.9062,16.125 52.375,16.125 M55.3281,8.92188 L55.3281,16 L56.5312,16 L56.5312,8.92188 L55.3281,8.92188 M55.3281,6.17188 L55.3281,7.39062 L56.5312,7.39062 L56.5312,6.17188 L55.3281,6.17188 M61.7031,9.75 C63.1406,9.75 63.8906,10.9688 63.8906,12.4844 C63.8906,13.9844 63.1562,15.1875 61.7031,15.1875 C60.2656,15.1875 59.5156,13.9688 59.5156,12.4844 C59.5156,10.9844 60.2656,9.75 61.7031,9.75 M61.6719,16.1406 C63.8438,16.1406 65.1094,14.6719 65.1094,12.4688 C65.1094,10.25 63.9062,8.8125 61.7188,8.8125 C59.5469,8.8125 58.2969,10.2656 58.2969,12.4844 C58.2969,14.6719 59.5,16.1406 61.6719,16.1406 M71.5312,11.5 L71.5312,16 L72.7188,16 L72.7188,11.2031 C72.7188,9.70312 71.9219,8.78125 70.4219,8.78125 C69.6719,8.78125 68.8125,9.01562 67.9219,9.48438 L67.6875,8.92188 L66.8438,8.92188 L66.8438,16 L68.0469,16 L68.0469,10.2969 C68.7656,9.96875 69.4375,9.79688 70,9.79688 C71.1406,9.79688 71.5312,10.3125 71.5312,11.5 M74.5938,14.9219 L74.5938,16 L80.75,16 L80.75,14.9219 L74.5938,14.9219 M85.5781,15.1406 C84.8594,15.1406 84.4844,14.9688 83.9844,14.6875 L83.9844,10.0469 C84.5,9.8125 85.0156,9.71875 85.5781,9.71875 C87.1094,9.71875 87.875,10.8438 87.875,12.4375 C87.875,14.0156 87.1406,15.1406 85.5781,15.1406 M85.8438,16.125 C88.0156,16.125 89.125,14.6562 89.125,12.5312 C89.125,11.3125 88.7812,10.3594 88.1094,9.6875 C87.4688,9.0625 86.6562,8.75 85.6875,8.75 C85.1094,8.75 84.5469,8.84375 83.9844,9.09375 L83.9844,6.17188 L82.7656,6.17188 L82.7656,16 L83.625,16 L83.8438,15.5 C84.4688,15.9062 85.1406,16.125 85.8438,16.125 M94.1094,15.1406 C92.5625,15.1406 91.8281,14.0156 91.8281,12.4375 C91.8281,10.8594 92.5625,9.71875 94.125,9.71875 C94.6875,9.71875 95.2031,9.8125 95.7188,10.0312 L95.7188,14.6875 C95.2188,14.9688 94.8281,15.1406 94.1094,15.1406 M93.8438,16.125 C94.5625,16.125 95.2344,15.9062 95.8594,15.5 L96.0625,16 L96.9375,16 L96.9375,6.17188 L95.7188,6.17188 L95.7188,9.09375 C95.1562,8.84375 94.5781,8.75 94.0156,8.75 C93.0469,8.75 92.2344,9.0625 91.5938,9.6875 C90.9219,10.3594 90.5781,11.3125 90.5781,12.5312 C90.5781,14.6562 91.6719,16.125 93.8438,16.125 M98.8281,8.92188 L98.8281,16 L100.031,16 L100.031,8.92188 L98.8281,8.92188 M98.8281,6.17188 L98.8281,7.39062 L100.031,7.39062 L100.031,6.17188 L98.8281,6.17188 M102.062,14.9219 L102.062,16 L108.219,16 L108.219,14.9219 L102.062,14.9219 M114.359,9.92188 L116.578,6.1875 L116.578,5.8125 L110.469,5.8125 L110.469,6.875 L114.812,6.875 L112.719,10.3906 L112.719,10.8594 L112.797,10.8594 C113.703,10.8594 114.375,10.8594 114.891,11.1562 C115.844,11.7031 116.016,12.5 116.016,13.1406 C116.016,13.7344 115.719,14.1875 115.203,14.5625 C114.672,14.9375 114.016,15.0781 113.359,15.0781 C112.719,15.0781 111.875,14.9375 110.875,14.6719 L110.547,15.6406 C111.438,16.0156 112.312,16.2031 113.172,16.2031 L113.203,16.2031 C114.344,16.2031 115.359,15.9375 116.109,15.3125 C116.859,14.6719 117.25,14.0938 117.25,13.0625 C117.25,11.6875 116.438,10.2188 114.359,9.92188 M123.312,6.78125 C123.75,6.78125 124.141,6.92188 124.516,7.20312 C125.422,7.90625 125.891,9.09375 125.891,10.7969 C125.891,12.6719 125.406,13.9688 124.438,14.6719 C124.078,14.9375 123.703,15.0781 123.281,15.0781 C122.844,15.0781 122.438,14.9375 122.094,14.7031 C121.094,14.0469 120.578,12.6875 120.578,10.7031 C120.578,8.65625 121.438,6.78125 123.312,6.78125 M119.375,10.7812 C119.375,13.1875 120.172,14.9688 121.703,15.7656 C122.188,16.0156 122.688,16.1406 123.219,16.1406 C123.75,16.1406 124.266,16.0312 124.734,15.7969 C126.344,14.9844 127.109,13.2188 127.109,10.7656 C127.109,8.46875 126.391,6.92188 124.938,6.125 C124.406,5.82812 123.875,5.6875 123.25,5.6875 C122.125,5.6875 121.172,6.15625 120.422,7.07812 C119.719,7.95312 119.375,9.17188 119.375,10.7812 M131.703,10.6562 C132.797,10.6562 133.516,10.875 134.109,11.4219 C134.547,11.8125 134.766,12.2188 134.766,12.875 C134.766,13.6719 134.328,14.1562 133.844,14.5 C133.266,14.9219 132.547,15.0312 131.531,15.0312 C130.734,15.0312 130.062,14.9531 129.344,14.8125 L129.109,15.8906 C130,16.0781 130.844,16.1406 131.609,16.1406 C132.219,16.1406 132.812,16.1094 133.328,15.9844 C133.922,15.875 134.422,15.6094 134.875,15.2344 C135.625,14.6094 136.016,13.7812 136.016,12.7188 C136.016,12.25 135.922,11.8125 135.734,11.3906 C135.172,10.2344 134.016,9.57812 132.234,9.57812 C131.797,9.57812 131.297,9.60938 130.734,9.67188 L130.719,6.89062 L135.438,6.89062 L135.438,5.8125 L129.562,5.8125 L129.562,10.8281 C130.344,10.75 130.969,10.6562 131.703,10.6562 M141.672,6.70312 C142.078,6.70312 142.453,6.75 142.719,6.875 C143.203,7.07812 143.656,7.51562 143.656,8.15625 C143.656,8.45312 143.578,8.71875 143.391,8.95312 C143.219,9.1875 142.812,9.5 142.188,9.89062 L142.016,9.82812 C141.797,9.76562 141.625,9.71875 141.484,9.65625 C140.516,9.3125 140.031,8.79688 140.031,8.125 C140.031,7.35938 140.875,6.70312 141.672,6.70312 M141.875,15.0781 C140.641,15.0781 139.484,14.2656 139.484,13.0938 C139.484,11.9062 140.578,11.1094 141.625,10.7969 C141.906,10.875 142.156,10.9531 142.375,11.0312 C143.578,11.5 144.156,12.2031 144.156,13.1562 C144.156,14.3594 143.141,15.0781 141.875,15.0781 M141.844,5.6875 C140.891,5.6875 140.156,5.9375 139.625,6.42188 C139.234,6.75 138.828,7.35938 138.828,8 C138.828,8.25 138.844,8.45312 138.891,8.625 C139.062,9.375 139.531,9.95312 140.297,10.3281 C139.281,10.8125 138.25,11.8438 138.25,13.2031 C138.25,13.7656 138.406,14.2656 138.734,14.7188 C139.328,15.5781 140.469,16.1406 141.875,16.1406 C143.172,16.1406 144.141,15.7031 144.828,14.8125 C145.219,14.2969 145.422,13.7031 145.422,13.0625 C145.422,12.4844 145.25,11.9688 144.922,11.5 C144.594,11.0312 144.094,10.625 143.391,10.3125 C143.891,9.96875 144.266,9.625 144.5,9.29688 C144.734,8.95312 144.828,8.57812 144.828,8.15625 C144.828,6.48438 143.609,5.6875 141.844,5.6875 M153.141,5.8125 L151.438,5.8125 L147.328,12.7344 L147.328,13.5312 L151.969,13.5312 L151.969,16 L153.141,16 L153.141,13.5312 L154.922,13.5312 L154.922,12.4688 L153.141,12.4688 L153.141,5.8125 M151.969,12.4688 L148.734,12.4688 L151.969,6.96875 L151.969,12.4688 M156.844,14.9219 L156.844,16 L163,16 L163,14.9219 L156.844,14.9219 M169.469,5.8125 L168.062,5.8125 L165.594,6.82812 L166.062,7.875 L168.297,6.98438 L168.297,14.9219 L165.906,14.9219 L165.906,16 L171.844,16 L171.844,14.9219 L169.469,14.9219 L169.469,5.8125 M180.031,5.8125 L178.328,5.8125 L174.219,12.7344 L174.219,13.5312 L178.859,13.5312 L178.859,16 L180.031,16 L180.031,13.5312 L181.812,13.5312 L181.812,12.4688 L180.031,12.4688 L180.031,5.8125 M178.859,12.4688 L175.625,12.4688 L178.859,6.96875 L178.859,12.4688 M187.391,6.78125 C187.828,6.78125 188.219,6.92188 188.594,7.20312 C189.5,7.90625 189.969,9.09375 189.969,10.7969 C189.969,12.6719 189.484,13.9688 188.516,14.6719 C188.156,14.9375 187.781,15.0781 187.359,15.0781 C186.922,15.0781 186.516,14.9375 186.172,14.7031 C185.172,14.0469 184.656,12.6875 184.656,10.7031 C184.656,8.65625 185.516,6.78125 187.391,6.78125 M183.453,10.7812 C183.453,13.1875 184.25,14.9688 185.781,15.7656 C186.266,16.0156 186.766,16.1406 187.297,16.1406 C187.828,16.1406 188.344,16.0312 188.812,15.7969 C190.422,14.9844 191.188,13.2188 191.188,10.7656 C191.188,8.46875 190.469,6.92188 189.016,6.125 C188.484,5.82812 187.953,5.6875 187.328,5.6875 C186.203,5.6875 185.25,6.15625 184.5,7.07812 C183.797,7.95312 183.453,9.17188 183.453,10.7812 M195.781,10.6562 C196.875,10.6562 197.594,10.875 198.188,11.4219 C198.625,11.8125 198.844,12.2188 198.844,12.875 C198.844,13.6719 198.406,14.1562 197.922,14.5 C197.344,14.9219 196.625,15.0312 195.609,15.0312 C194.812,15.0312 194.141,14.9531 193.422,14.8125 L193.188,15.8906 C194.078,16.0781 194.922,16.1406 195.688,16.1406 C196.297,16.1406 196.891,16.1094 197.406,15.9844 C198,15.875 198.5,15.6094 198.953,15.2344 C199.703,14.6094 200.094,13.7812 200.094,12.7188 C200.094,12.25 200,11.8125 199.812,11.3906 C199.25,10.2344 198.094,9.57812 196.312,9.57812 C195.875,9.57812 195.375,9.60938 194.812,9.67188 L194.797,6.89062 L199.516,6.89062 L199.516,5.8125 L193.641,5.8125 L193.641,10.8281 C194.422,10.75 195.047,10.6562 195.781,10.6562 M207.922,5.8125 L206.219,5.8125 L202.109,12.7344 L202.109,13.5312 L206.75,13.5312 L206.75,16 L207.922,16 L207.922,13.5312 L209.703,13.5312 L209.703,12.4688 L207.922,12.4688 L207.922,5.8125 M206.75,12.4688 L203.516,12.4688 L206.75,6.96875 L206.75,12.4688 M215.625,9.92188 L217.844,6.1875 L217.844,5.8125 L211.734,5.8125 L211.734,6.875 L216.078,6.875 L213.984,10.3906 L213.984,10.8594 L214.062,10.8594 C214.969,10.8594 215.641,10.8594 216.156,11.1562 C217.109,11.7031 217.281,12.5 217.281,13.1406 C217.281,13.7344 216.984,14.1875 216.469,14.5625 C215.938,14.9375 215.281,15.0781 214.625,15.0781 C213.984,15.0781 213.141,14.9375 212.141,14.6719 L211.812,15.6406 C212.703,16.0156 213.578,16.2031 214.438,16.2031 L214.469,16.2031 C215.609,16.2031 216.625,15.9375 217.375,15.3125 C218.125,14.6719 218.516,14.0938 218.516,13.0625 C218.516,11.6875 217.703,10.2188 215.625,9.92188 M225.25,5.8125 L223.844,5.8125 L221.375,6.82812 L221.844,7.875 L224.078,6.98438 L224.078,14.9219 L221.688,14.9219 L221.688,16 L227.625,16 L227.625,14.9219 L225.25,14.9219 L225.25,5.8125 M236.047,6.84375 L235.969,5.78125 C232.109,5.78125 230.359,7.75 230.359,11.8281 C230.359,13.5625 230.703,14.7031 231.688,15.5312 C232.203,15.9531 232.906,16.1719 233.781,16.1719 C235.719,16.1719 237.219,14.625 237.219,12.5312 C237.219,11.6719 236.969,10.9531 236.469,10.3594 C235.859,9.67188 235.062,9.32812 234.062,9.32812 C233.016,9.32812 232.188,9.73438 231.688,10.2969 C231.719,10 231.766,9.73438 231.812,9.54688 C232.203,7.76562 233.5,6.84375 236.047,6.84375 M233.828,15.1719 C232.547,15.1719 231.547,13.9219 231.547,12.5625 C231.547,11.3125 232.469,10.3125 233.797,10.3125 C235.094,10.3125 236.047,11.3594 236.047,12.625 C236.047,13.9375 235.109,15.1719 233.828,15.1719 M240.828,15.125 L240.906,16.1719 C241.609,16.1719 242.594,16.0938 243.219,15.875 C245.406,15.1719 246.516,13.2031 246.516,10.0312 C246.516,8.29688 246.234,7.15625 245.234,6.32812 C244.719,5.90625 243.953,5.6875 243.094,5.6875 C240.922,5.6875 239.656,7.14062 239.656,9.21875 C239.656,10.0781 239.906,10.75 240.406,11.3281 C241,12.0156 242,12.3594 243,12.375 C243.844,12.375 244.672,11.9688 245.188,11.3906 C245.141,11.7031 245.109,12.125 245.062,12.3125 C244.656,14.0938 243.375,15.125 240.828,15.125 M243.047,6.76562 C244.547,6.76562 245.328,7.84375 245.328,9.1875 C245.328,10.4375 244.375,11.2344 243.062,11.2344 C241.75,11.2344 240.828,10.375 240.828,9.10938 C240.828,7.8125 241.547,6.76562 243.047,6.76562 M254.406,5.8125 L252.703,5.8125 L248.594,12.7344 L248.594,13.5312 L253.234,13.5312 L253.234,16 L254.406,16 L254.406,13.5312 L256.188,13.5312 L256.188,12.4688 L254.406,12.4688 L254.406,5.8125 M253.234,12.4688 L250,12.4688 L253.234,6.96875 L253.234,12.4688 M265.406,5.8125 L257.969,5.8125 L257.969,6.95312 L263.922,6.95312 L259.234,16 L260.656,16 L265.406,6.57812 L265.406,5.8125 M273,5.8125 L271.297,5.8125 L267.188,12.7344 L267.188,13.5312 L271.828,13.5312 L271.828,16 L273,16 L273,13.5312 L274.781,13.5312 L274.781,12.4688 L273,12.4688 L273,5.8125 M271.828,12.4688 L268.594,12.4688 L271.828,6.96875 L271.828,12.4688 M279.453,10.6562 C280.547,10.6562 281.266,10.875 281.859,11.4219 C282.297,11.8125 282.516,12.2188 282.516,12.875 C282.516,13.6719 282.078,14.1562 281.594,14.5 C281.016,14.9219 280.297,15.0312 279.281,15.0312 C278.484,15.0312 277.812,14.9531 277.094,14.8125 L276.859,15.8906 C277.75,16.0781 278.594,16.1406 279.359,16.1406 C279.969,16.1406 280.562,16.1094 281.078,15.9844 C281.672,15.875 282.172,15.6094 282.625,15.2344 C283.375,14.6094 283.766,13.7812 283.766,12.7188 C283.766,12.25 283.672,11.8125 283.484,11.3906 C282.922,10.2344 281.766,9.57812 279.984,9.57812 C279.547,9.57812 279.047,9.60938 278.484,9.67188 L278.469,6.89062 L283.188,6.89062 L283.188,5.8125 L277.312,5.8125 L277.312,10.8281 C278.094,10.75 278.719,10.6562 279.453,10.6562 "/>
</g>

<g fill="none" stroke="#000000" stroke-opacity="1" stroke-width="1" stroke-linecap="square" stroke-linejoin="bevel" transform="matrix(2,0,0,2,1276.07,124)"
font-family="Cantarell" font-size="11" font-weight="400" font-style="normal" 
>
</g>

<g fill="none" stroke="#000000" stroke-opacity="1" stroke-width="1" stroke-linecap="square" stroke-linejoin="bevel" transform="matrix(2,0,0,2,1276.07,124)"
font-family="Cantarell" font-size="11" font-weight="400" font-style="normal" 
>
</g>

<g fill="none" stroke="#000000" stroke-opacity="1" stroke-width="1" stroke-linecap="square" stroke-linejoin="bevel" transform="matrix(2,0,0,2,-0.0032,181)"
font-family="Cantarell" font-size="11" font-weight="400" font-style="normal" 
>
</g>

<g fill="none" stroke="#000000" stroke-opacity="1" stroke-width="1" stroke-linecap="square" stroke-linejoin="bevel" transform="matrix(2,0,0,2,-0.0032,181)"
font-family="Cantarell" font-size="11" font-weight="400" font-style="normal" 
>
</g>

<g fill="none" stroke="#000000" stroke-opacity="1" stroke-width="1" stroke-linecap="square" stroke-linejoin="bevel" transform="matrix(2,0,0,2,-0.0032,181)"
font-family="Cantarell" font-size="11" font-weight="400" font-style="normal" 
>
</g>

<g fill="none" stroke="#000000" stroke-opacity="1" stroke-width="1" stroke-linecap="square" stroke-linejoin="round" transform="matrix(2,0,0,2,-0.0032,181)"
font-family="Cantarell" font-size="11" font-weight="400" font-style="normal" 
>
<path vector-effect="none" fill-rule="evenodd" d="M355.498,-18 C355.498,-8.05885 276.03,4e-05 178,4e-05 C79.9703,4e-05 0.5016,-8.05885 0.5016,-18 C0.5016,-27.9411 79.9703,-36 178,-36 C276.03,-36 355.498,-27.9411 355.498,-18 "/>
</g>

<g fill="none" stroke="#000000" stroke-opacity="1" stroke-width="1" stroke-linecap="square" stroke-linejoin="bevel" transform="matrix(2,0,0,2,-0.0032,181)"
font-family="Cantarell" font-size="11" font-weight="400" font-style="normal" 
>
</g>

<g fill="none" stroke="#000000" stroke-opacity="1" stroke-width="1" stroke-linecap="square" stroke-linejoin="bevel" transform="matrix(2,0,0,2,113.559,124)"
font-family="Cantarell" font-size="11" font-weight="400" font-style="normal" 
>
</g>

<g fill="none" stroke="#000000" stroke-opacity="1" stroke-width="1" stroke-linecap="square" stroke-linejoin="bevel" transform="matrix(2,0,0,2,113.559,124)"
font-family="Cantarell" font-size="11" font-weight="400" font-style="normal" 
>
</g>

<g fill="#000000" fill-opacity="1" stroke="#000000" stroke-opacity="1" stroke-width="1" stroke-linecap="square" stroke-linejoin="round" transform="matrix(2,0,0,2,113.559,124)"
font-family="Cantarell" font-size="11" font-weight="400" font-style="normal" 
>
<path vector-effect="non-scaling-stroke" fill-rule="nonzero" d="M3.84375,5.8125 L0.296875,16.6406 L1.51562,16.6406 L5.0625,5.8125 L3.84375,5.8125 M9.21875,8.79688 C8.53125,8.79688 7.89062,9.03125 7.25,9.51562 L7.01562,8.9375 L6.14062,8.9375 L6.14062,16 L7.35938,16 L7.35938,10.375 C7.875,10.0312 8.40625,9.84375 8.96875,9.84375 C9.32812,9.84375 9.67188,9.9375 10.0469,10.0938 L10.1875,10.0938 L10.1875,8.9375 C9.89062,8.84375 9.5625,8.79688 9.21875,8.79688 M14.6875,9.75 C16.125,9.75 16.875,10.9688 16.875,12.4844 C16.875,13.9844 16.1406,15.1875 14.6875,15.1875 C13.25,15.1875 12.5,13.9688 12.5,12.4844 C12.5,10.9844 13.25,9.75 14.6875,9.75 M14.6562,16.1406 C16.8281,16.1406 18.0938,14.6719 18.0938,12.4688 C18.0938,10.25 16.8906,8.8125 14.7031,8.8125 C12.5312,8.8125 11.2812,10.2656 11.2812,12.4844 C11.2812,14.6719 12.4844,16.1406 14.6562,16.1406 M22.0312,15.1562 C21.1719,15.1562 20.3281,14.9688 19.5312,14.6719 L19.5312,15.7344 C20.1875,16.0156 21.0469,16.1406 22.1406,16.1406 C23.2188,16.1406 24,15.8281 24.4844,15.2031 C24.7344,14.9062 24.8438,14.5 24.8438,14.125 C24.8438,13.6719 24.75,13.3281 24.4375,12.9844 C24.1719,12.7031 23.9375,12.4688 22.9688,12.1094 L21.8906,11.7188 C21.5625,11.5938 21.3438,11.4844 21.2344,11.4062 C20.9844,11.25 20.8125,11.125 20.8125,10.7031 C20.8125,10.5469 20.8906,10.3906 21.0469,10.25 C21.4219,9.89062 21.9219,9.79688 22.5781,9.79688 C23.4844,9.79688 24.125,10.2031 24.4531,10.3438 L24.4531,9.35938 C23.8125,9.0625 23.3594,8.85938 22.4688,8.84375 L22.4062,8.84375 C21.8906,8.84375 21.3906,8.9375 20.9375,9.10938 C20.2188,9.39062 19.5938,9.89062 19.5938,10.8594 C19.5938,11.9844 20.5469,12.3281 21.125,12.5938 L22.2188,13.0156 C22.5781,13.1562 22.9375,13.3281 23.1719,13.4844 C23.4531,13.6875 23.5938,13.8906 23.5938,14.1719 C23.5938,14.875 22.8125,15.1562 22.0312,15.1562 M29.0938,16.125 C29.5938,16.125 30.1094,16.0469 30.6562,15.875 L30.6562,14.9688 C30.2812,15.0781 29.875,15.1406 29.4531,15.1406 C28.5469,15.1406 28.3125,14.6562 28.3125,13.7031 L28.3125,9.90625 L30.6562,9.90625 L30.6562,8.90625 L28.3125,8.90625 L28.3125,7.09375 L27.125,7.15625 L27.125,8.90625 L25.9219,8.90625 L25.9219,9.90625 L27.125,9.90625 L27.125,13.7969 C27.125,15.2969 27.625,16.125 29.0938,16.125 M35.3125,9.75 C36.75,9.75 37.5,10.9688 37.5,12.4844 C37.5,13.9844 36.7656,15.1875 35.3125,15.1875 C33.875,15.1875 33.125,13.9688 33.125,12.4844 C33.125,10.9844 33.875,9.75 35.3125,9.75 M35.2812,16.1406 C37.4531,16.1406 38.7188,14.6719 38.7188,12.4688 C38.7188,10.25 37.5156,8.8125 35.3281,8.8125 C33.1562,8.8125 31.9062,10.2656 31.9062,12.4844 C31.9062,14.6719 33.1094,16.1406 35.2812,16.1406 M43.2656,9.79688 C44.8125,9.79688 45.5781,10.9062 45.5781,12.4844 C45.5781,14.0625 44.7656,15.2344 43.2656,15.2344 C42.7188,15.2344 42.1875,15.125 41.6719,14.9062 L41.6719,10.2344 C42.1719,9.95312 42.5469,9.79688 43.2656,9.79688 M41.6719,19.8281 L41.6719,15.8438 C42.2344,16.0781 42.7969,16.1875 43.375,16.1875 C44.3438,16.1875 45.1562,15.8594 45.7969,15.2188 C46.4688,14.5625 46.8281,13.6094 46.8281,12.3906 C46.8281,10.9219 46.3125,9.89062 45.3281,9.26562 C44.8281,8.95312 44.2344,8.79688 43.5312,8.79688 C42.8281,8.79688 42.1719,9.01562 41.5469,9.42188 L41.3125,8.92188 L40.4531,8.92188 L40.4531,19.8281 L41.6719,19.8281 M48.5,8.92188 L48.5,16 L49.7031,16 L49.7031,8.92188 L48.5,8.92188 M48.5,6.17188 L48.5,7.39062 L49.7031,7.39062 L49.7031,6.17188 L48.5,6.17188 M54.8125,16.1406 L54.8906,16.1406 C55.5,16.1406 56.125,16.0156 56.8125,15.75 L56.5312,14.9375 C56.0781,15.1094 55.625,15.1719 55.2344,15.1719 C55.125,15.1719 55.0156,15.1719 54.9062,15.1562 C53.3438,14.9688 52.6094,14.1094 52.6094,12.375 C52.6094,10.7188 53.4375,9.79688 55.125,9.79688 C55.5469,9.79688 56.0625,9.875 56.5938,10.0625 L56.8906,9.21875 C56.25,8.9375 55.625,8.79688 55.0625,8.79688 C53.8281,8.79688 52.9375,9.14062 52.3281,9.85938 C51.75,10.5469 51.4688,11.4531 51.4688,12.5781 C51.4688,14.8281 52.625,16.1406 54.8125,16.1406 M58.5781,14.9219 L58.5781,16 L64.7344,16 L64.7344,14.9219 L58.5781,14.9219 M70.875,9.92188 L73.0938,6.1875 L73.0938,5.8125 L66.9844,5.8125 L66.9844,6.875 L71.3281,6.875 L69.2344,10.3906 L69.2344,10.8594 L69.3125,10.8594 C70.2188,10.8594 70.8906,10.8594 71.4062,11.1562 C72.3594,11.7031 72.5312,12.5 72.5312,13.1406 C72.5312,13.7344 72.2344,14.1875 71.7188,14.5625 C71.1875,14.9375 70.5312,15.0781 69.875,15.0781 C69.2344,15.0781 68.3906,14.9375 67.3906,14.6719 L67.0625,15.6406 C67.9531,16.0156 68.8281,16.2031 69.6875,16.2031 L69.7188,16.2031 C70.8594,16.2031 71.875,15.9375 72.625,15.3125 C73.375,14.6719 73.7656,14.0938 73.7656,13.0625 C73.7656,11.6875 72.9531,10.2188 70.875,9.92188 M79.8281,6.78125 C80.2656,6.78125 80.6562,6.92188 81.0312,7.20312 C81.9375,7.90625 82.4062,9.09375 82.4062,10.7969 C82.4062,12.6719 81.9219,13.9688 80.9531,14.6719 C80.5938,14.9375 80.2188,15.0781 79.7969,15.0781 C79.3594,15.0781 78.9531,14.9375 78.6094,14.7031 C77.6094,14.0469 77.0938,12.6875 77.0938,10.7031 C77.0938,8.65625 77.9531,6.78125 79.8281,6.78125 M75.8906,10.7812 C75.8906,13.1875 76.6875,14.9688 78.2188,15.7656 C78.7031,16.0156 79.2031,16.1406 79.7344,16.1406 C80.2656,16.1406 80.7812,16.0312 81.25,15.7969 C82.8594,14.9844 83.625,13.2188 83.625,10.7656 C83.625,8.46875 82.9062,6.92188 81.4531,6.125 C80.9219,5.82812 80.3906,5.6875 79.7656,5.6875 C78.6406,5.6875 77.6875,6.15625 76.9375,7.07812 C76.2344,7.95312 75.8906,9.17188 75.8906,10.7812 M91.2969,6.84375 L91.2188,5.78125 C87.3594,5.78125 85.6094,7.75 85.6094,11.8281 C85.6094,13.5625 85.9531,14.7031 86.9375,15.5312 C87.4531,15.9531 88.1562,16.1719 89.0312,16.1719 C90.9688,16.1719 92.4688,14.625 92.4688,12.5312 C92.4688,11.6719 92.2188,10.9531 91.7188,10.3594 C91.1094,9.67188 90.3125,9.32812 89.3125,9.32812 C88.2656,9.32812 87.4375,9.73438 86.9375,10.2969 C86.9688,10 87.0156,9.73438 87.0625,9.54688 C87.4531,7.76562 88.75,6.84375 91.2969,6.84375 M89.0781,15.1719 C87.7969,15.1719 86.7969,13.9219 86.7969,12.5625 C86.7969,11.3125 87.7188,10.3125 89.0469,10.3125 C90.3438,10.3125 91.2969,11.3594 91.2969,12.625 C91.2969,13.9375 90.3594,15.1719 89.0781,15.1719 M99.0938,5.8125 L97.6875,5.8125 L95.2188,6.82812 L95.6875,7.875 L97.9219,6.98438 L97.9219,14.9219 L95.5312,14.9219 L95.5312,16 L101.469,16 L101.469,14.9219 L99.0938,14.9219 L99.0938,5.8125 M108.391,5.8125 L106.984,5.8125 L104.516,6.82812 L104.984,7.875 L107.219,6.98438 L107.219,14.9219 L104.828,14.9219 L104.828,16 L110.766,16 L110.766,14.9219 L108.391,14.9219 L108.391,5.8125 M113.359,14.9219 L113.359,16 L119.516,16 L119.516,14.9219 L113.359,14.9219 M125.984,5.8125 L124.578,5.8125 L122.109,6.82812 L122.578,7.875 L124.812,6.98438 L124.812,14.9219 L122.422,14.9219 L122.422,16 L128.359,16 L128.359,14.9219 L125.984,14.9219 L125.984,5.8125 M136.547,5.8125 L134.844,5.8125 L130.734,12.7344 L130.734,13.5312 L135.375,13.5312 L135.375,16 L136.547,16 L136.547,13.5312 L138.328,13.5312 L138.328,12.4688 L136.547,12.4688 L136.547,5.8125 M135.375,12.4688 L132.141,12.4688 L135.375,6.96875 L135.375,12.4688 M143.906,6.78125 C144.344,6.78125 144.734,6.92188 145.109,7.20312 C146.016,7.90625 146.484,9.09375 146.484,10.7969 C146.484,12.6719 146,13.9688 145.031,14.6719 C144.672,14.9375 144.297,15.0781 143.875,15.0781 C143.438,15.0781 143.031,14.9375 142.688,14.7031 C141.688,14.0469 141.172,12.6875 141.172,10.7031 C141.172,8.65625 142.031,6.78125 143.906,6.78125 M139.969,10.7812 C139.969,13.1875 140.766,14.9688 142.297,15.7656 C142.781,16.0156 143.281,16.1406 143.812,16.1406 C144.344,16.1406 144.859,16.0312 145.328,15.7969 C146.938,14.9844 147.703,13.2188 147.703,10.7656 C147.703,8.46875 146.984,6.92188 145.531,6.125 C145,5.82812 144.469,5.6875 143.844,5.6875 C142.719,5.6875 141.766,6.15625 141.016,7.07812 C140.312,7.95312 139.969,9.17188 139.969,10.7812 M152.297,10.6562 C153.391,10.6562 154.109,10.875 154.703,11.4219 C155.141,11.8125 155.359,12.2188 155.359,12.875 C155.359,13.6719 154.922,14.1562 154.438,14.5 C153.859,14.9219 153.141,15.0312 152.125,15.0312 C151.328,15.0312 150.656,14.9531 149.938,14.8125 L149.703,15.8906 C150.594,16.0781 151.438,16.1406 152.203,16.1406 C152.812,16.1406 153.406,16.1094 153.922,15.9844 C154.516,15.875 155.016,15.6094 155.469,15.2344 C156.219,14.6094 156.609,13.7812 156.609,12.7188 C156.609,12.25 156.516,11.8125 156.328,11.3906 C155.766,10.2344 154.609,9.57812 152.828,9.57812 C152.391,9.57812 151.891,9.60938 151.328,9.67188 L151.312,6.89062 L156.031,6.89062 L156.031,5.8125 L150.156,5.8125 L150.156,10.8281 C150.938,10.75 151.562,10.6562 152.297,10.6562 M164.438,5.8125 L162.734,5.8125 L158.625,12.7344 L158.625,13.5312 L163.266,13.5312 L163.266,16 L164.438,16 L164.438,13.5312 L166.219,13.5312 L166.219,12.4688 L164.438,12.4688 L164.438,5.8125 M163.266,12.4688 L160.031,12.4688 L163.266,6.96875 L163.266,12.4688 M172.141,9.92188 L174.359,6.1875 L174.359,5.8125 L168.25,5.8125 L168.25,6.875 L172.594,6.875 L170.5,10.3906 L170.5,10.8594 L170.578,10.8594 C171.484,10.8594 172.156,10.8594 172.672,11.1562 C173.625,11.7031 173.797,12.5 173.797,13.1406 C173.797,13.7344 173.5,14.1875 172.984,14.5625 C172.453,14.9375 171.797,15.0781 171.141,15.0781 C170.5,15.0781 169.656,14.9375 168.656,14.6719 L168.328,15.6406 C169.219,16.0156 170.094,16.2031 170.953,16.2031 L170.984,16.2031 C172.125,16.2031 173.141,15.9375 173.891,15.3125 C174.641,14.6719 175.031,14.0938 175.031,13.0625 C175.031,11.6875 174.219,10.2188 172.141,9.92188 M181.766,5.8125 L180.359,5.8125 L177.891,6.82812 L178.359,7.875 L180.594,6.98438 L180.594,14.9219 L178.203,14.9219 L178.203,16 L184.141,16 L184.141,14.9219 L181.766,14.9219 L181.766,5.8125 M192.562,6.84375 L192.484,5.78125 C188.625,5.78125 186.875,7.75 186.875,11.8281 C186.875,13.5625 187.219,14.7031 188.203,15.5312 C188.719,15.9531 189.422,16.1719 190.297,16.1719 C192.234,16.1719 193.734,14.625 193.734,12.5312 C193.734,11.6719 193.484,10.9531 192.984,10.3594 C192.375,9.67188 191.578,9.32812 190.578,9.32812 C189.531,9.32812 188.703,9.73438 188.203,10.2969 C188.234,10 188.281,9.73438 188.328,9.54688 C188.719,7.76562 190.016,6.84375 192.562,6.84375 M190.344,15.1719 C189.062,15.1719 188.062,13.9219 188.062,12.5625 C188.062,11.3125 188.984,10.3125 190.312,10.3125 C191.609,10.3125 192.562,11.3594 192.562,12.625 C192.562,13.9375 191.625,15.1719 190.344,15.1719 M197.344,15.125 L197.422,16.1719 C198.125,16.1719 199.109,16.0938 199.734,15.875 C201.922,15.1719 203.031,13.2031 203.031,10.0312 C203.031,8.29688 202.75,7.15625 201.75,6.32812 C201.234,5.90625 200.469,5.6875 199.609,5.6875 C197.438,5.6875 196.172,7.14062 196.172,9.21875 C196.172,10.0781 196.422,10.75 196.922,11.3281 C197.516,12.0156 198.516,12.3594 199.516,12.375 C200.359,12.375 201.188,11.9688 201.703,11.3906 C201.656,11.7031 201.625,12.125 201.578,12.3125 C201.172,14.0938 199.891,15.125 197.344,15.125 M199.562,6.76562 C201.062,6.76562 201.844,7.84375 201.844,9.1875 C201.844,10.4375 200.891,11.2344 199.578,11.2344 C198.266,11.2344 197.344,10.375 197.344,9.10938 C197.344,7.8125 198.062,6.76562 199.562,6.76562 M208.75,6.70312 C209.156,6.70312 209.531,6.75 209.797,6.875 C210.281,7.07812 210.734,7.51562 210.734,8.15625 C210.734,8.45312 210.656,8.71875 210.469,8.95312 C210.297,9.1875 209.891,9.5 209.266,9.89062 L209.094,9.82812 C208.875,9.76562 208.703,9.71875 208.562,9.65625 C207.594,9.3125 207.109,8.79688 207.109,8.125 C207.109,7.35938 207.953,6.70312 208.75,6.70312 M208.953,15.0781 C207.719,15.0781 206.562,14.2656 206.562,13.0938 C206.562,11.9062 207.656,11.1094 208.703,10.7969 C208.984,10.875 209.234,10.9531 209.453,11.0312 C210.656,11.5 211.234,12.2031 211.234,13.1562 C211.234,14.3594 210.219,15.0781 208.953,15.0781 M208.922,5.6875 C207.969,5.6875 207.234,5.9375 206.703,6.42188 C206.312,6.75 205.906,7.35938 205.906,8 C205.906,8.25 205.922,8.45312 205.969,8.625 C206.141,9.375 206.609,9.95312 207.375,10.3281 C206.359,10.8125 205.328,11.8438 205.328,13.2031 C205.328,13.7656 205.484,14.2656 205.812,14.7188 C206.406,15.5781 207.547,16.1406 208.953,16.1406 C210.25,16.1406 211.219,15.7031 211.906,14.8125 C212.297,14.2969 212.5,13.7031 212.5,13.0625 C212.5,12.4844 212.328,11.9688 212,11.5 C211.672,11.0312 211.172,10.625 210.469,10.3125 C210.969,9.96875 211.344,9.625 211.578,9.29688 C211.812,8.95312 211.906,8.57812 211.906,8.15625 C211.906,6.48438 210.688,5.6875 208.922,5.6875 M215.938,15.125 L216.016,16.1719 C216.719,16.1719 217.703,16.0938 218.328,15.875 C220.516,15.1719 221.625,13.2031 221.625,10.0312 C221.625,8.29688 221.344,7.15625 220.344,6.32812 C219.828,5.90625 219.062,5.6875 218.203,5.6875 C216.031,5.6875 214.766,7.14062 214.766,9.21875 C214.766,10.0781 215.016,10.75 215.516,11.3281 C216.109,12.0156 217.109,12.3594 218.109,12.375 C218.953,12.375 219.781,11.9688 220.297,11.3906 C220.25,11.7031 220.219,12.125 220.172,12.3125 C219.766,14.0938 218.484,15.125 215.938,15.125 M218.156,6.76562 C219.656,6.76562 220.438,7.84375 220.438,9.1875 C220.438,10.4375 219.484,11.2344 218.172,11.2344 C216.859,11.2344 215.938,10.375 215.938,9.10938 C215.938,7.8125 216.656,6.76562 218.156,6.76562 M229.75,6.84375 L229.672,5.78125 C225.812,5.78125 224.062,7.75 224.062,11.8281 C224.062,13.5625 224.406,14.7031 225.391,15.5312 C225.906,15.9531 226.609,16.1719 227.484,16.1719 C229.422,16.1719 230.922,14.625 230.922,12.5312 C230.922,11.6719 230.672,10.9531 230.172,10.3594 C229.562,9.67188 228.766,9.32812 227.766,9.32812 C226.719,9.32812 225.891,9.73438 225.391,10.2969 C225.422,10 225.469,9.73438 225.516,9.54688 C225.906,7.76562 227.203,6.84375 229.75,6.84375 M227.531,15.1719 C226.25,15.1719 225.25,13.9219 225.25,12.5625 C225.25,11.3125 226.172,10.3125 227.5,10.3125 C228.797,10.3125 229.75,11.3594 229.75,12.625 C229.75,13.9375 228.812,15.1719 227.531,15.1719 M234.531,15.125 L234.609,16.1719 C235.312,16.1719 236.297,16.0938 236.922,15.875 C239.109,15.1719 240.219,13.2031 240.219,10.0312 C240.219,8.29688 239.938,7.15625 238.938,6.32812 C238.422,5.90625 237.656,5.6875 236.797,5.6875 C234.625,5.6875 233.359,7.14062 233.359,9.21875 C233.359,10.0781 233.609,10.75 234.109,11.3281 C234.703,12.0156 235.703,12.3594 236.703,12.375 C237.547,12.375 238.375,11.9688 238.891,11.3906 C238.844,11.7031 238.812,12.125 238.766,12.3125 C238.359,14.0938 237.078,15.125 234.531,15.125 M236.75,6.76562 C238.25,6.76562 239.031,7.84375 239.031,9.1875 C239.031,10.4375 238.078,11.2344 236.766,11.2344 C235.453,11.2344 234.531,10.375 234.531,9.10938 C234.531,7.8125 235.25,6.76562 236.75,6.76562 "/>
</g>

<g fill="none" stroke="#000000" stroke-opacity="1" stroke-width="1" stroke-linecap="square" stroke-linejoin="bevel" transform="matrix(2,0,0,2,113.559,124)"
font-family="Cantarell" font-size="11" font-weight="400" font-style="normal" 
>
</g>

<g fill="none" stroke="#000000" stroke-opacity="1" stroke-width="1" stroke-linecap="square" stroke-linejoin="bevel" transform="matrix(2,0,0,2,113.559,124)"
font-family="Cantarell" font-size="11" font-weight="400" font-style="normal" 
>
</g>

<g fill="none" stroke="#000000" stroke-opacity="1" stroke-width="1" stroke-linecap="square" stroke-linejoin="bevel" transform="matrix(2,0,0,2,-0.0032,181)"
font-family="Cantarell" font-size="11" font-weight="400" font-style="normal" 
>
</g>

<g fill="none" stroke="#000000" stroke-opacity="1" stroke-width="1" stroke-linecap="square" stroke-linejoin="bevel" transform="matrix(2,0,0,2,-0.0032,181)"
font-family="Cantarell" font-size="11" font-weight="400" font-style="normal" 
>
</g>

<g fill="none" stroke="#000000" stroke-opacity="1" stroke-width="1" stroke-linecap="square" stroke-linejoin="bevel" transform="matrix(2,0,0,2,-0.0032,181)"
font-family="Cantarell" font-size="11" font-weight="400" font-style="normal" 
>
</g>

<g fill="none" stroke="#000000" stroke-opacity="1" stroke-width="1" stroke-linecap="square" stroke-linejoin="round" transform="matrix(2,0,0,2,-0.0032,181)"
font-family="Cantarell" font-size="11" font-weight="400" font-style="normal" 
>
<path vector-effect="none" fill-rule="evenodd" d="M356.07,-18 C364.85,-18 373.44,-18 381.69,-18 "/>
</g>

<g fill="none" stroke="#000000" stroke-opacity="1" stroke-width="1" stroke-linecap="square" stroke-linejoin="bevel" transform="matrix(2,0,0,2,-0.0032,181)"
font-family="Cantarell" font-size="11" font-weight="400" font-style="normal" 
>
</g>

<g fill="none" stroke="#000000" stroke-opacity="1" stroke-width="1" stroke-linecap="square" stroke-linejoin="bevel" transform="matrix(2,0,0,2,-0.0032,181)"
font-family="Cantarell" font-size="11" font-weight="400" font-style="normal" 
>
</g>

<g fill="#000000" fill-opacity="1" stroke="#000000" stroke-opacity="1" stroke-width="1" stroke-linecap="square" stroke-linejoin="round" transform="matrix(2,0,0,2,-0.0032,181)"
font-family="Cantarell" font-size="11" font-weight="400" font-style="normal" 
>
<path vector-effect="none" fill-rule="evenodd" d="M381.69,-18 L381.69,-14.409 L391.95,-18 L381.69,-21.591 L381.69,-18"/>
</g>

<g fill="none" stroke="#000000" stroke-opacity="1" stroke-width="1" stroke-linecap="square" stroke-linejoin="bevel" transform="matrix(2,0,0,2,-0.0032,181)"
font-family="Cantarell" font-size="11" font-weight="400" font-style="normal" 
>
</g>

<g fill="none" stroke="#000000" stroke-opacity="1" stroke-width="1" stroke-linecap="square" stroke-linejoin="bevel" transform="matrix(2,0,0,2,-0.0032,181)"
font-family="Cantarell" font-size="11" font-weight="400" font-style="normal" 
>
</g>

<g fill="none" stroke="#000000" stroke-opacity="1" stroke-width="1" stroke-linecap="square" stroke-linejoin="bevel" transform="matrix(2,0,0,2,-0.0032,181)"
font-family="Cantarell" font-size="11" font-weight="400" font-style="normal" 
>
</g>

<g fill="none" stroke="#000000" stroke-opacity="1" stroke-width="1" stroke-linecap="square" stroke-linejoin="bevel" transform="matrix(2,0,0,2,-0.0032,181)"
font-family="Cantarell" font-size="11" font-weight="400" font-style="normal" 
>
</g>

<g fill="none" stroke="#000000" stroke-opacity="1" stroke-width="1" stroke-linecap="square" stroke-linejoin="round" transform="matrix(2,0,0,2,-0.0032,181)"
font-family="Cantarell" font-size="11" font-weight="400" font-style="normal" 
>
<path vector-effect="none" fill-rule="evenodd" d="M991.5,-18 C1000.6,-18 1009.4,-18 1017.6,-18 "/>
</g>

<g fill="none" stroke="#000000" stroke-opacity="1" stroke-width="1" stroke-linecap="square" stroke-linejoin="bevel" transform="matrix(2,0,0,2,-0.0032,181)"
font-family="Cantarell" font-size="11" font-weight="400" font-style="normal" 
>
</g>

<g fill="none" stroke="#000000" stroke-opacity="1" stroke-width="1" stroke-linecap="square" stroke-linejoin="bevel" transform="matrix(2,0,0,2,-0.0032,181)"
font-family="Cantarell" font-size="11" font-weight="400" font-style="normal" 
>
</g>

<g fill="#000000" fill-opacity="1" stroke="#000000" stroke-opacity="1" stroke-width="1" stroke-linecap="square" stroke-linejoin="round" transform="matrix(2,0,0,2,-0.0032,181)"
font-family="Cantarell" font-size="11" font-weight="400" font-style="normal" 
>
<path vector-effect="none" fill-rule="evenodd" d="M1017.6,-18 L1017.6,-14.43 L1027.8,-18 L1017.6,-21.57 L1017.6,-18"/>
</g>

<g fill="none" stroke="#000000" stroke-opacity="1" stroke-width="1" stroke-linecap="square" stroke-linejoin="bevel" transform="matrix(2,0,0,2,-0.0032,181)"
font-family="Cantarell" font-size="11" font-weight="400" font-style="normal" 
>
</g>

<g fill="none" stroke="#000000" stroke-opacity="1" stroke-width="1" stroke-linecap="square" stroke-linejoin="bevel" transform="matrix(2,0,0,2,-0.0032,181)"
font-family="Cantarell" font-size="11" font-weight="400" font-style="normal" 
>
</g>

<g fill="none" stroke="#000000" stroke-opacity="1" stroke-width="1" stroke-linecap="square" stroke-linejoin="bevel" transform="matrix(2,0,0,2,-0.0032,181)"
font-family="Cantarell" font-size="11" font-weight="400" font-style="normal" 
>
</g>

<g fill="none" stroke="#000000" stroke-opacity="1" stroke-width="1" stroke-linecap="square" stroke-linejoin="bevel" transform="matrix(2,0,0,2,-0.0032,181)"
font-family="Cantarell" font-size="11" font-weight="400" font-style="normal" 
>
</g>

<g fill="none" stroke="#000000" stroke-opacity="1" stroke-width="1" stroke-linecap="square" stroke-linejoin="round" transform="matrix(2,0,0,2,-0.0032,181)"
font-family="Cantarell" font-size="11" font-weight="400" font-style="normal" 
>
<path vector-effect="none" fill-rule="evenodd" d="M1132.2,-18 C1140.2,-18 1148.7,-18 1157.6,-18 "/>
</g>

<g fill="none" stroke="#000000" stroke-opacity="1" stroke-width="1" stroke-linecap="square" stroke-linejoin="bevel" transform="matrix(2,0,0,2,-0.0032,181)"
font-family="Cantarell" font-size="11" font-weight="400" font-style="normal" 
>
</g>

<g fill="none" stroke="#000000" stroke-opacity="1" stroke-width="1" stroke-linecap="square" stroke-linejoin="bevel" transform="matrix(2,0,0,2,-0.0032,181)"
font-family="Cantarell" font-size="11" font-weight="400" font-style="normal" 
>
</g>

<g fill="#000000" fill-opacity="1" stroke="#000000" stroke-opacity="1" stroke-width="1" stroke-linecap="square" stroke-linejoin="round" transform="matrix(2,0,0,2,-0.0032,181)"
font-family="Cantarell" font-size="11" font-weight="400" font-style="normal" 
>
<path vector-effect="none" fill-rule="evenodd" d="M1157.6,-18 L1157.6,-14.395 L1167.9,-18 L1157.6,-21.605 L1157.6,-18"/>
</g>

<g fill="none" stroke="#000000" stroke-opacity="1" stroke-width="1" stroke-linecap="square" stroke-linejoin="bevel" transform="matrix(2,0,0,2,-0.0032,181)"
font-family="Cantarell" font-size="11" font-weight="400" font-style="normal" 
>
</g>

<g fill="none" stroke="#000000" stroke-opacity="1" stroke-width="1" stroke-linecap="square" stroke-linejoin="bevel" transform="matrix(2,0,0,2,-0.0032,181)"
font-family="Cantarell" font-size="11" font-weight="400" font-style="normal" 
>
</g>

<g fill="none" stroke="#000000" stroke-opacity="1" stroke-width="1" stroke-linecap="square" stroke-linejoin="bevel" transform="matrix(2,0,0,2,-0.0032,181)"
font-family="Cantarell" font-size="11" font-weight="400" font-style="normal" 
>
</g>

<g fill="none" stroke="#000000" stroke-opacity="1" stroke-width="1" stroke-linecap="square" stroke-linejoin="bevel" transform="matrix(2,0,0,2,-0.0032,181)"
font-family="Cantarell" font-size="11" font-weight="400" font-style="normal" 
>
</g>

<g fill="none" stroke="#000000" stroke-opacity="1" stroke-width="1" stroke-linecap="square" stroke-linejoin="round" transform="matrix(2,0,0,2,-0.0032,181)"
font-family="Cantarell" font-size="11" font-weight="400" font-style="normal" 
>
<path vector-effect="none" fill-rule="evenodd" d="M534.37,-18 C542.55,-18 551.18,-18 560.12,-18 "/>
</g>

<g fill="none" stroke="#000000" stroke-opacity="1" stroke-width="1" stroke-linecap="square" stroke-linejoin="bevel" transform="matrix(2,0,0,2,-0.0032,181)"
font-family="Cantarell" font-size="11" font-weight="400" font-style="normal" 
>
</g>

<g fill="none" stroke="#000000" stroke-opacity="1" stroke-width="1" stroke-linecap="square" stroke-linejoin="bevel" transform="matrix(2,0,0,2,-0.0032,181)"
font-family="Cantarell" font-size="11" font-weight="400" font-style="normal" 
>
</g>

<g fill="#000000" fill-opacity="1" stroke="#000000" stroke-opacity="1" stroke-width="1" stroke-linecap="square" stroke-linejoin="round" transform="matrix(2,0,0,2,-0.0032,181)"
font-family="Cantarell" font-size="11" font-weight="400" font-style="normal" 
>
<path vector-effect="none" fill-rule="evenodd" d="M560.12,-18 L560.12,-14.423 L570.34,-18 L560.12,-21.577 L560.12,-18"/>
</g>

<g fill="none" stroke="#000000" stroke-opacity="1" stroke-width="1" stroke-linecap="square" stroke-linejoin="bevel" transform="matrix(2,0,0,2,-0.0032,181)"
font-family="Cantarell" font-size="11" font-weight="400" font-style="normal" 
>
</g>

<g fill="none" stroke="#000000" stroke-opacity="1" stroke-width="1" stroke-linecap="square" stroke-linejoin="bevel" transform="matrix(1,0,0,1,0,0)"
font-family="Cantarell" font-size="11" font-weight="400" font-style="normal" 
>
</g>
</g>
</svg>
